<?xml version="1.0" encoding="utf-8"?>
<!-- Generator: Adobe Illustrator 23.0.3, SVG Export Plug-In . SVG Version: 6.00 Build 0)  -->
<svg version="1.1" id="Layer_1" xmlns="http://www.w3.org/2000/svg" xmlns:xlink="http://www.w3.org/1999/xlink" x="0px" y="0px"
	 viewBox="0 0 128 128" style="enable-background:new 0 0 128 128;" xml:space="preserve">
<style type="text/css">
	.st0{fill:#FFCC99;}
	.st1{fill:#ADADAD;}
	.st2{fill:#9E1313;}
	.st3{fill:#F7F7F7;}
	.st4{fill:#EFEFEF;}
</style>
<path class="st0" d="M47.8,72.9c-6.1,1.1-13.5,0.8-19.7,0.2c-4.8-0.5-9.2-2.4-12.6-5.8C6.8,58.8,6.8,41.6,15.3,33
	c4.7-4.8,10.1-9,15.2-13.3c2.7-2.3,5.3-4.6,8.1-7c2.3-2,4.8-5,7.7-6c4.3-1.5,8.8,1.7,9,6.3c0.2,5.9-8.1,10.4-12.1,13.8
	c11.9-0.6,24.1-0.2,36.2-0.1c4.5,0,12.7-1.6,16.4,1.2c3.9,2.9,2.4,8.9-2,10.1c-4.9,1.4-11.5,0.3-16.7,0.2c-6.7-0.1-13.3,0-20,0
	c-4.7,0-13.6-2-17,2.2c-3.6,4.4-0.1,9.5,4.8,10.5c-4.3,3.8-2.6,10.2,3,11.5C44.1,65.6,44.7,69.7,47.8,72.9z"/>
<path class="st0" d="M61,49.7c-4.5,0-9,0-13.5,0c-3.3,0-7.1-0.5-7.6-4.6c-0.6-5,4.2-5.8,7.9-5.8c5,0,10,0,15,0s20.4-2.9,19.4,5.7
	c-0.4,3.7-3.6,4.6-6.9,4.6C70.5,49.8,65.7,49.7,61,49.7z"/>
<path class="st0" d="M61.1,50.9c4.7,0,17.7-2.6,17.7,5.2S66,61.3,61.2,61.3c-4.6,0-16.3,2.4-17.7-4.2C41.8,48.4,56.4,50.9,61.1,50.9
	z"/>
<path class="st0" d="M60.9,62.5c4.4,0,13.5-1.9,14.5,4.4c1.2,7.6-9.2,6-13.6,6c-4.6,0-15.4,2.1-15.5-5.2
	C46.2,60.6,56.6,62.5,60.9,62.5z"/>
<polygon class="st1" points="2.9,122.8 93.4,60.8 95.2,63.4 4.9,125.8 "/>
<path class="st2" d="M70.7,77.3l0.6,1.3c0.3,0.5,0.9,0.7,1.4,0.4l22.4-15.5c0.1,0,0.1-0.1,0.2-0.1c0.7-0.3,5.2-2.1,6-4.6
	c0.9-2.6-7.2,1.5-7.9,1.9c0,0-0.1,0-0.1,0.1L71,76.1C70.6,76.4,70.5,76.9,70.7,77.3z"/>
<polygon class="st3" points="3.2,123.2 93.6,61.2 93.9,61.6 3.4,123.6 "/>
<polygon class="st2" points="12.6,123.1 112.6,78 113.8,80.7 14.1,126.4 "/>
<polygon class="st4" points="12.9,123.6 112.8,78.5 112.9,78.7 13.1,124 "/>
<path class="st2" d="M94.2,36.8c2.9,5,7.1,10.8,8.1,16.7c0.8,4.8-3.2,9.5-8.1,9.3c-5-0.2-8.8-4.5-8.1-9.4
	C87,47.7,91.4,41.7,94.2,36.8z"/>
</svg>
