<?xml version="1.0" encoding="utf-8"?>
<!-- Generator: Adobe Illustrator 22.1.0, SVG Export Plug-In . SVG Version: 6.00 Build 0)  -->
<svg version="1.1" id="Layer_1" xmlns="http://www.w3.org/2000/svg" xmlns:xlink="http://www.w3.org/1999/xlink" x="0px" y="0px"
	 viewBox="0 0 128 128" style="enable-background:new 0 0 128 128;" xml:space="preserve">
<style type="text/css">
	.st0{fill:#FFCC99;}
	.st1{fill:#E5E5E5;}
	.st2{fill:#9E1313;}
	.st3{fill:#919191;}
</style>
<path class="st0" d="M47.8,68.6c-6.1,1.1-13.5,0.8-19.7,0.2c-4.8-0.5-9.2-2.4-12.6-5.8c-8.7-8.5-8.7-25.7-0.2-34.3
	c4.7-4.8,10.1-9,15.2-13.3c2.7-2.3,5.3-4.6,8.1-7c2.3-2,4.8-5,7.7-6c4.3-1.5,8.8,1.7,9,6.3c0.2,5.9-8.1,10.4-12.1,13.8
	c11.9-0.6,24.1-0.2,36.2-0.1c4.5,0,12.7-1.6,16.4,1.2c3.9,2.9,2.4,8.9-2,10.1c-4.9,1.4-11.5,0.3-16.7,0.2c-6.7-0.1-13.3,0-20,0
	c-4.7,0-13.6-2-17,2.2c-3.6,4.4-0.1,9.5,4.8,10.5c-4.3,3.8-2.6,10.2,3,11.5C44.1,61.3,44.7,65.4,47.8,68.6z"/>
<path class="st0" d="M61,45.4c-4.5,0-9,0-13.5,0c-3.3,0-7.1-0.5-7.6-4.6c-0.6-5,4.2-5.8,7.9-5.8c5,0,10,0,15,0s20.4-2.9,19.4,5.7
	c-0.4,3.7-3.6,4.6-6.9,4.6C70.5,45.5,65.7,45.4,61,45.4z"/>
<path class="st0" d="M61.1,46.6c4.7,0,17.7-2.6,17.7,5.2S66,57,61.2,57c-4.6,0-16.3,2.4-17.7-4.2C41.8,44.1,56.4,46.6,61.1,46.6z"/>
<path class="st0" d="M60.9,58.2c4.4,0,13.5-1.9,14.5,4.4c1.2,7.6-9.2,6-13.6,6c-4.6,0-15.4,2.1-15.5-5.2
	C46.2,56.3,56.6,58.2,60.9,58.2z"/>
<rect x="-5.7" y="91.5" transform="matrix(0.8249 -0.5653 0.5653 0.8249 -44.1337 44.1103)" class="st1" width="109.7" height="3.6"/>
<path class="st2" d="M70.3,76.6l1.9,3l23.2-15.9c0,0,5-2.2,5.9-4.9s-8,1.9-8,1.9L70.3,76.6z"/>
<rect x="-6.1" y="92.2" transform="matrix(0.8249 -0.5653 0.5653 0.8249 -43.9375 43.808)" class="st3" width="109.7" height="1.2"/>
<rect x="8.5" y="100.4" transform="matrix(0.9117 -0.4108 0.4108 0.9117 -36.3937 35.0497)" class="st2" width="109.7" height="3.6"/>
<rect x="8.3" y="101" transform="matrix(0.9117 -0.4108 0.4108 0.9117 -36.1604 34.9035)" class="st3" width="109.7" height="1.2"/>
<path class="st2" d="M94.2,36.8c2.9,5,7.1,10.8,8.1,16.7c0.8,4.8-3.2,9.5-8.1,9.3c-5-0.2-8.8-4.5-8.1-9.4
	C87,47.7,91.4,41.7,94.2,36.8z"/>
</svg>
