<?xml version="1.0" encoding="utf-8"?>
<!-- Generator: Adobe Illustrator 22.1.0, SVG Export Plug-In . SVG Version: 6.00 Build 0)  -->
<svg version="1.1" id="Layer_1" xmlns="http://www.w3.org/2000/svg" xmlns:xlink="http://www.w3.org/1999/xlink" x="0px" y="0px"
	 viewBox="0 0 800 800" style="enable-background:new 0 0 800 800;" xml:space="preserve">
<style type="text/css">
	.st0{fill:#EFC470;stroke:#D3AB66;stroke-width:15.4523;stroke-miterlimit:10;}
	.st1{fill:none;stroke:#FFFFFF;stroke-width:7.7261;stroke-miterlimit:10;}
	.st2{fill:none;}
	.st3{fill:#969696;}
	.st4{fill:#9E1313;}
	.st5{fill:#DBDBDB;}
	.st6{fill:none;stroke:#969696;stroke-width:10.78;stroke-miterlimit:10;}
	.st7{fill:none;stroke:#969696;stroke-width:8;stroke-miterlimit:10;}
	.st8{fill:#736898;stroke:#5E587F;stroke-width:15.4523;stroke-miterlimit:10;}
</style>
<g>
	<g>
		<path class="st0" d="M541.4,585.1H406.9v-73.7c0,0,35.5-13.6,67.3-13.6c35.3,0,67.3,13.6,67.3,13.6L541.4,585.1L541.4,585.1z"/>
		<line class="st1" x1="428.6" y1="529" x2="428.6" y2="574.3"/>
		<line class="st1" x1="450.7" y1="519.1" x2="450.7" y2="568.8"/>
		<line class="st1" x1="472.7" y1="512.5" x2="472.7" y2="569.9"/>
		<line class="st1" x1="494.8" y1="519.1" x2="494.8" y2="568.8"/>
		<line class="st1" x1="516.9" y1="529" x2="516.9" y2="574.3"/>
	</g>
	<g>
		<path class="st2" d="M234,724c0,18.4,15.2,33.5,33.8,33.5c18.4,0,33.8-15.1,33.8-33.5V366.6H234V724z"/>
		<path class="st3" d="M301.5,366.6V724c0,18.4-15.2,33.5-33.8,33.5c-18.4,0-33.8-15.1-33.8-33.5V366.6h-11V724
			c0,24.9,20.4,45.2,45.4,45.2c24.9,0,45.4-20.3,45.4-45.2V366.6H301.5z"/>
		<path class="st4" d="M301.6,579.1h-69V724c0,18.4,15.6,33.5,34.5,33.5c18.8,0,34.5-15.1,34.5-33.5V579.1z"/>
		<rect x="222.9" y="477.6" class="st5" width="41.1" height="157.7"/>
	</g>
	<path class="st6" d="M227.5,368.9c0-9,18.1-16.2,40.3-16.2c22.3,0,40.3,7.3,40.3,16.2"/>
	<path class="st7" d="M299.2,342.5c-5.4,4.9-22.4-5.1-38-22.3s-23.8-35.1-18.4-40"/>
	<g>
		<path class="st8" d="M541.4,729.6H406.9v-73.7c0,0,35.5-13.6,67.3-13.6c35.3,0,67.3,13.6,67.3,13.6L541.4,729.6L541.4,729.6z"/>
		<line class="st1" x1="428.6" y1="673.5" x2="428.6" y2="718.8"/>
		<line class="st1" x1="450.7" y1="663.6" x2="450.7" y2="713.3"/>
		<line class="st1" x1="472.8" y1="657" x2="472.8" y2="714.4"/>
		<line class="st1" x1="494.8" y1="663.6" x2="494.8" y2="713.3"/>
		<line class="st1" x1="516.9" y1="673.5" x2="516.9" y2="718.8"/>
	</g>
	<path class="st4" d="M569.4,63.2c-1.8-1.4-3.8-2-6.3-1.2c-2.4,0.8-4.2,2.8-5.9,4.6c-8.5,9.3-17,18.5-25.5,27.8
		c-7.4,8.1-17.6,14.6-26.1,21.7c-19.1,16.1-38.2,32.2-57.2,48.4c-28.9,24.6-57.8,49.3-86.5,74.2c-19.5,16.9-40.4,32.6-57.7,51.8
		c-8.4,9.3-16.3,19.5-21.7,30.9c-2.8,5.9-4.9,12.2-5.9,18.7c-0.9,6,0.7,13-1.6,18.6c-1.1,2.5-3.4,4.3-4.9,6.6
		c-3.9,5.8-0.8,14.9,5.8,17.2s14.7-3,15.2-9.9c0.3-3.4-1-6.7-2.3-9.9c-1.9-4.6-4.8-11.8-3.3-16.6c1.5-4.9,4.8-5.4,8.5-7.6
		c4.6-2.8,8.9-7.1,13-10.6c10-8.6,20.4-16.9,30.9-24.9c0,0,0,0,0.1-0.1l224-200.4c0,0,15.2-27.3,15.2-27.4
		C575.3,71.9,573,66,569.4,63.2z"/>
	<path class="st6" d="M308.1,368.9c0,9-18.1,16.2-40.3,16.2c-22.3,0-40.3-7.3-40.3-16.2"/>
	<g>
		<path class="st3" d="M244.8,290.4L509.5,50.3c13.7-12.4,35.1-11.2,47.5,2.5c12.4,13.7,11.5,35.1-2.1,47.5L290.2,340.4l7.4,8.2
			l264.7-240.2c18.5-16.7,19.8-45.4,3-64c-16.7-18.5-45.5-20-63.9-3.2L236.7,281.4L244.8,290.4z"/>
		
			<rect x="340.7" y="122.5" transform="matrix(0.7406 -0.6719 0.6719 0.7406 12.6885 319.0212)" class="st5" width="157.7" height="41.1"/>
	</g>
	<path class="st4" d="M287.3,451.8c0,6.6-5.3,11.9-11.9,11.9c-6.6,0-11.9-5.3-11.9-11.9s11.9-23.1,11.9-23.1
		S287.3,445.2,287.3,451.8z"/>
	<path class="st7" d="M242.8,280.3c5.4-4.9,22.4,5.1,38,22.3s23.8,35.1,18.4,40"/>
</g>
</svg>
