<?xml version="1.0" encoding="utf-8"?>
<!-- Generator: Adobe Illustrator 22.1.0, SVG Export Plug-In . SVG Version: 6.00 Build 0)  -->
<svg version="1.1" id="Layer_1" xmlns="http://www.w3.org/2000/svg" xmlns:xlink="http://www.w3.org/1999/xlink" x="0px" y="0px"
	 viewBox="0 0 800 800" style="enable-background:new 0 0 800 800;" xml:space="preserve">
<style type="text/css">
	.st0{display:none;fill:#04B27C;}
	.st1{fill:none;}
	.st2{fill:#969696;}
	.st3{fill:#EFC470;stroke:#D3AB66;stroke-width:20.2643;stroke-miterlimit:10;}
	.st4{fill:none;stroke:#FFFFFF;stroke-width:10.1321;stroke-miterlimit:10;}
	.st5{fill:#9E1313;}
	.st6{fill:#736898;}
	.st7{fill:#736898;stroke:#5E587F;stroke-width:20.2643;stroke-miterlimit:10;}
	.st8{fill:#EFC470;}
</style>
<rect class="st0" width="800" height="800"/>
<g>
	<g>
		<path class="st1" d="M106.8,678.1c0,26.5,21.9,48.1,48.5,48.1c26.5,0,48.5-21.6,48.5-48.1V164.5h-97V678.1z"/>
		<path class="st2" d="M203.7,164.5v513.5c0,26.5-21.9,48.1-48.5,48.1c-26.5,0-48.5-21.6-48.5-48.1V164.5H90.8v513.5
			c0,35.8,29.2,64.9,65.2,64.9c35.8,0,65.2-29.1,65.2-64.9V164.5H203.7z"/>
		<path class="st3" d="M243.9,171.5H67.5V74.8c0,0,46.6-17.8,88.3-17.8C202,57,244,74.8,244,74.8L243.9,171.5L243.9,171.5z"/>
		<line class="st4" x1="95.9" y1="97.9" x2="95.9" y2="157.3"/>
		<line class="st4" x1="124.9" y1="84.9" x2="124.9" y2="150.1"/>
		<line class="st4" x1="153.8" y1="76.3" x2="153.8" y2="151.6"/>
		<line class="st4" x1="182.8" y1="84.9" x2="182.8" y2="150.1"/>
		<line class="st4" x1="211.7" y1="97.9" x2="211.7" y2="157.3"/>
		<g>
			<path class="st5" d="M203.7,470h-97v208.1c0,26.5,21.9,48.1,48.5,48.1c26.5,0,48.5-21.6,48.5-48.1V470z"/>
		</g>
		<rect x="90.8" y="324" class="st6" width="59" height="226.6"/>
	</g>
	<g>
		<path class="st1" d="M595.3,678.1c0,26.5,21.9,48.1,48.5,48.1c26.5,0,48.5-21.6,48.5-48.1V164.5h-97V678.1z"/>
		<path class="st2" d="M692.2,164.5v513.5c0,26.5-21.9,48.1-48.5,48.1c-26.5,0-48.5-21.6-48.5-48.1V164.5h-15.9v513.5
			c0,35.8,29.2,64.9,65.2,64.9c35.8,0,65.2-29.1,65.2-64.9V164.5H692.2z"/>
		<path class="st7" d="M732.4,171.5H556V74.8c0,0,46.6-17.8,88.3-17.8c46.3,0,88.3,17.8,88.3,17.8L732.4,171.5L732.4,171.5z"/>
		<line class="st4" x1="584.5" y1="97.9" x2="584.5" y2="157.3"/>
		<line class="st4" x1="613.4" y1="84.9" x2="613.4" y2="150.1"/>
		<line class="st4" x1="642.4" y1="76.3" x2="642.4" y2="151.6"/>
		<line class="st4" x1="671.3" y1="84.9" x2="671.3" y2="150.1"/>
		<line class="st4" x1="700.2" y1="97.9" x2="700.2" y2="157.3"/>
		<g>
			<path class="st5" d="M692.2,470h-97v208.1c0,26.5,21.9,48.1,48.5,48.1c26.5,0,48.5-21.6,48.5-48.1V470z"/>
		</g>
		<rect x="579.3" y="324" class="st8" width="59" height="226.6"/>
	</g>
</g>
</svg>
