<?xml version="1.0" encoding="utf-8"?>
<!-- Generator: Adobe Illustrator 22.1.0, SVG Export Plug-In . SVG Version: 6.00 Build 0)  -->
<svg version="1.1" id="Layer_1" xmlns="http://www.w3.org/2000/svg" xmlns:xlink="http://www.w3.org/1999/xlink" x="0px" y="0px"
	 viewBox="0 0 128 128" style="enable-background:new 0 0 128 128;" xml:space="preserve">
<style type="text/css">
	.st0{fill:#FFFFFF;}
	.st1{fill:#FF2E2E;}
</style>
<g>
	<polygon class="st0" points="89.7,2 38.3,2 2,38.3 2,89.7 38.3,126 89.7,126 126,89.7 126,38.3 	"/>
</g>
<g>
	<polygon class="st1" points="88,6 40,6 6,40 6,88 40,122 88,122 122,88 122,40 	"/>
</g>
<g>
	<path class="st0" d="M16.7,72.6c1.8,1.1,4.4,2,7.2,2c4.1,0,6.5-2.2,6.5-5.3c0-2.9-1.7-4.6-5.8-6.2c-5.1-1.8-8.2-4.4-8.2-8.8
		c0-4.8,4-8.4,10-8.4c3.2,0,5.5,0.7,6.9,1.5l-1.1,3.3c-1-0.6-3.1-1.5-5.9-1.5c-4.2,0-5.8,2.5-5.8,4.6c0,2.9,1.9,4.3,6.2,6
		c5.2,2,7.9,4.6,7.9,9.1c0,4.8-3.5,8.9-10.9,8.9c-3,0-6.3-0.9-7.9-2L16.7,72.6z"/>
	<path class="st0" d="M45.8,49.9h-9.4v-3.4h23v3.4h-9.5v27.6h-4V49.9z"/>
	<path class="st0" d="M88.1,61.7c0,10.7-6.5,16.3-14.4,16.3c-8.2,0-13.9-6.3-13.9-15.7c0-9.8,6.1-16.3,14.4-16.3
		C82.6,46,88.1,52.5,88.1,61.7z M64,62.2c0,6.6,3.6,12.6,9.9,12.6c6.3,0,9.9-5.8,9.9-12.9c0-6.2-3.2-12.6-9.9-12.6
		C67.3,49.3,64,55.4,64,62.2z"/>
	<path class="st0" d="M93.3,46.9c1.9-0.3,4.5-0.6,7.7-0.6c4,0,6.9,0.9,8.7,2.6c1.7,1.5,2.7,3.7,2.7,6.5c0,2.8-0.8,5-2.4,6.6
		c-2.1,2.3-5.6,3.4-9.5,3.4c-1.2,0-2.3,0-3.2-0.3v12.4h-4V46.9z M97.3,61.8c0.9,0.2,2,0.3,3.3,0.3c4.8,0,7.8-2.3,7.8-6.6
		c0-4.1-2.9-6.1-7.3-6.1c-1.7,0-3.1,0.1-3.8,0.3V61.8z"/>
</g>
</svg>
