<?xml version="1.0" encoding="utf-8"?>
<!-- Generator: Adobe Illustrator 22.1.0, SVG Export Plug-In . SVG Version: 6.00 Build 0)  -->
<svg version="1.1" id="Layer_1" xmlns="http://www.w3.org/2000/svg" xmlns:xlink="http://www.w3.org/1999/xlink" x="0px" y="0px"
	 viewBox="0 0 128 128" style="enable-background:new 0 0 128 128;" xml:space="preserve">
<style type="text/css">
	.st0{display:none;fill:#00B8FF;}
	.st1{fill:#FF5AA5;}
</style>
<path class="st0" d="M114,3H89v6h18.6L97.6,19.1L85.5,31.1C77.5,25.4,67.6,22,57,22C29.9,22,8,43.9,8,71s21.9,49,49,49
	s49-21.9,49-49c0-13.2-5.2-25.1-13.7-34l11.6-11.6L114,15.4V28h6V3H114z M57,111c-22.1,0-40-17.9-40-40c0-22.1,17.9-40,40-40
	s40,17.9,40,40C97,93.1,79.1,111,57,111z"/>
<path class="st1" d="M103,42c0-21.5-17.5-39-39-39S25,20.5,25,42c0,20.2,15.3,36.8,35,38.8V101H38v8h22v18h8v-18h21v-8H68V80.8
	C87.7,78.8,103,62.2,103,42z M32.2,42c0-17.6,14.3-31.8,31.8-31.8S95.8,24.4,95.8,42c0,17.6-14.3,31.8-31.8,31.8S32.2,59.6,32.2,42z
	"/>
</svg>
