<?xml version="1.0" encoding="utf-8"?>
<!-- Generator: Adobe Illustrator 23.0.3, SVG Export Plug-In . SVG Version: 6.00 Build 0)  -->
<svg version="1.1" id="Layer_1" xmlns="http://www.w3.org/2000/svg" xmlns:xlink="http://www.w3.org/1999/xlink" x="0px" y="0px"
	 viewBox="0 0 113.7 83" style="enable-background:new 0 0 113.7 83;" xml:space="preserve">
<style type="text/css">
	.st0{fill:#21DB55;}
</style>
<title>checked</title>
<path class="st0" d="M110.5,3.2L110.5,3.2c-4.2-4.2-11.1-4.2-15.3,0c0,0,0,0,0,0L41.5,56.8l-23-23c-4.3-4.1-11.2-4-15.3,0.4
	c-4,4.2-4,10.8,0,15l23,23l0,0l7.7,7.7c4.2,4.2,11.1,4.2,15.3,0c0,0,0,0,0,0l7.7-7.7l0,0l53.7-53.7C114.7,14.3,114.7,7.4,110.5,3.2z
	"/>
</svg>
