<svg id="Layer_1" data-name="Layer 1" xmlns="http://www.w3.org/2000/svg" viewBox="0 0 112 112"><defs><style>.cls-1{fill:#fff;}</style></defs><title>cross</title><path class="cls-1" d="M86.38,64l29.69-29.69a13.4,13.4,0,0,0,0-19l-3.42-3.42a13.4,13.4,0,0,0-19,0L64,41.62,34.31,11.93a13.4,13.4,0,0,0-19,0l-3.42,3.42a13.4,13.4,0,0,0,0,19L41.62,64,11.93,93.69a13.4,13.4,0,0,0,0,19l3.42,3.42a13.4,13.4,0,0,0,19,0L64,86.38l29.69,29.69a13.4,13.4,0,0,0,19,0l3.42-3.42a13.4,13.4,0,0,0,0-19Z" transform="translate(-8 -8)"/></svg>