<?xml version="1.0" encoding="utf-8"?>
<!-- Generator: Adobe Illustrator 23.0.3, SVG Export Plug-In . SVG Version: 6.00 Build 0)  -->
<svg version="1.1" id="Layer_1" xmlns="http://www.w3.org/2000/svg" xmlns:xlink="http://www.w3.org/1999/xlink" x="0px" y="0px"
	 viewBox="0 0 112 112" style="enable-background:new 0 0 112 112;" xml:space="preserve">
<style type="text/css">
	.st0{fill:#FFFFFF;}
</style>
<g>
	<path class="st0" d="M15,86.2l-4.6,20.5l19.7-7.1c-1.1-3.1-3.3-6.3-5.8-8.5S19.1,87.2,15,86.2z"/>
	<path class="st0" d="M90.1,31.7l11.5-13l-3.8-3.3L94.1,12l-3.8-3.3l-3.8-3.3L75.6,17.6c0.4,0.1,0.8,0.3,1.2,0.4
		c0.1,0.1,0.2,0.1,0.3,0.2c0.3,0.1,0.5,0.3,0.8,0.4c0.1,0.1,0.2,0.2,0.4,0.2c0.2,0.2,0.5,0.3,0.7,0.5c0.1,0.1,0.2,0.2,0.3,0.3
		c0.2,0.2,0.4,0.3,0.6,0.5c0.1,0.1,0.2,0.2,0.4,0.4c0.2,0.2,0.4,0.3,0.5,0.5c0.1,0.1,0.2,0.2,0.3,0.3c0.2,0.2,0.4,0.4,0.6,0.7
		c0,0,0.1,0.1,0.1,0.1c0.5,0.6,1,1.2,1.5,1.9l0,0c1,1.4,2,2.8,3.1,4.1l0,0c0,0,0,0,0,0c0.2,0.2,0.4,0.5,0.6,0.7
		c0.1,0.1,0.2,0.2,0.2,0.3c0.2,0.2,0.4,0.4,0.6,0.6c0.1,0.1,0.2,0.2,0.3,0.3c0.2,0.2,0.5,0.4,0.7,0.6c0.1,0.1,0.2,0.1,0.2,0.2
		C89.5,31.2,89.8,31.5,90.1,31.7z"/>
	<path class="st0" d="M85.4,35.1c-0.1-0.1-0.2-0.2-0.3-0.3c-0.2-0.2-0.4-0.4-0.6-0.7c-0.1-0.1-0.2-0.2-0.3-0.4
		c-0.2-0.2-0.4-0.4-0.5-0.7c-0.1-0.1-0.2-0.3-0.3-0.4c-1.1-1.6-2.1-3.3-3.2-4.9l0,0c0-0.1-0.1-0.1-0.1-0.2c-0.1-0.2-0.3-0.4-0.4-0.7
		c-0.1-0.2-0.2-0.4-0.4-0.5c-0.1-0.2-0.3-0.4-0.4-0.6c-0.1-0.2-0.2-0.3-0.3-0.5c-0.1-0.2-0.3-0.4-0.4-0.6c-0.1-0.1-0.2-0.3-0.3-0.4
		c-0.2-0.2-0.3-0.4-0.5-0.5c-0.1-0.1-0.1-0.1-0.1-0.2c-0.2-0.2-0.3-0.3-0.5-0.5c0,0-0.1,0-0.1-0.1c-0.2-0.2-0.5-0.4-0.7-0.6
		c0,0-0.1-0.1-0.1-0.1c-0.3-0.2-0.5-0.4-0.8-0.5c-0.1,0-0.1-0.1-0.2-0.1c-0.3-0.1-0.6-0.3-0.9-0.4c-0.1,0-0.1,0-0.2,0
		c-0.3-0.1-0.7-0.2-1.1-0.2l-3.8,4.3L63,31.9L16.7,84.3c0.4,0.1,0.8,0.3,1.3,0.4c0.2,0.1,0.3,0.1,0.5,0.2c0.3,0.1,0.5,0.2,0.8,0.3
		c0.2,0.1,0.4,0.2,0.5,0.2c0.2,0.1,0.5,0.2,0.7,0.3c0.2,0.1,0.3,0.2,0.5,0.3c0.2,0.1,0.4,0.2,0.7,0.3c0,0,0.1,0,0.1,0.1
		c1.5,0.8,2.8,1.8,4.1,2.9l0,0c1.3,1.2,2.6,2.5,3.6,3.9c0,0,0,0,0,0.1c0.2,0.3,0.5,0.7,0.7,1c0,0,0,0,0,0c0.2,0.3,0.4,0.7,0.7,1.1
		c0,0.1,0.1,0.1,0.1,0.2c0.2,0.3,0.3,0.6,0.5,0.9c0.2,0.4,0.4,0.8,0.5,1.2l22.3-25.3L66.1,59l17.8-20.1l2.5-2.9
		C86,35.7,85.7,35.4,85.4,35.1z"/>
</g>
</svg>
