<?xml version="1.0" encoding="utf-8"?>
<!-- Generator: Adobe Illustrator 22.1.0, SVG Export Plug-In . SVG Version: 6.00 Build 0)  -->
<svg version="1.1" xmlns="http://www.w3.org/2000/svg" xmlns:xlink="http://www.w3.org/1999/xlink" x="0px" y="0px"
	 viewBox="0 0 128 128" style="enable-background:new 0 0 128 128;" xml:space="preserve">
<style type="text/css">
	.st0{display:none;}
	.st1{display:inline;}
	.st2{fill:#3888B3;}
	.st3{fill:none;stroke:#3888B3;stroke-width:3;stroke-miterlimit:10;}
	.st4{fill:none;stroke:#3888B3;stroke-width:2;stroke-miterlimit:10;}
	.st5{fill:none;stroke:#3888B3;stroke-miterlimit:10;}
	.st6{fill:none;stroke:#3888B3;stroke-width:0.7071;stroke-miterlimit:10;}
</style>
<g id="Layer_2" class="st0">
	<g class="st1">
		<rect y="0" class="st2" width="128" height="128"/>
	</g>
</g>
<g id="Layer_1">
	<rect x="4" y="25" class="st3" width="120" height="78"/>
	<line class="st3" x1="32.5" y1="35.5" x2="95.5" y2="35.5"/>
	<line class="st3" x1="32.5" y1="41.5" x2="83.5" y2="41.5"/>
	<line class="st3" x1="10" y1="66.5" x2="114.9" y2="66.5"/>
	<line class="st4" x1="10" y1="75.5" x2="23" y2="75.5"/>
	<line class="st4" x1="26.5" y1="75.5" x2="39.5" y2="75.5"/>
	<line class="st4" x1="43" y1="75.5" x2="56" y2="75.5"/>
	<line class="st4" x1="59.5" y1="75.5" x2="72.5" y2="75.5"/>
	<line class="st4" x1="76" y1="75.5" x2="89" y2="75.5"/>
	<line class="st4" x1="92.5" y1="75.5" x2="105.5" y2="75.5"/>
	<line class="st4" x1="10" y1="80.8" x2="23" y2="80.8"/>
	<line class="st4" x1="26.5" y1="80.8" x2="39.5" y2="80.8"/>
	<line class="st4" x1="43" y1="80.8" x2="56" y2="80.8"/>
	<line class="st4" x1="59.5" y1="80.8" x2="72.5" y2="80.8"/>
	<line class="st4" x1="76" y1="80.8" x2="89" y2="80.8"/>
	<line class="st4" x1="92.5" y1="80.8" x2="105.5" y2="80.8"/>
	<line class="st4" x1="10" y1="91.1" x2="114.9" y2="91.1"/>
	<line class="st5" x1="10" y1="47.2" x2="114.9" y2="47.2"/>
	<line class="st6" x1="9" y1="41.8" x2="9" y2="33.3"/>
	<line class="st6" x1="10.6" y1="41.8" x2="10.6" y2="33.3"/>
	<line class="st6" x1="12.2" y1="41.8" x2="12.2" y2="33.3"/>
	<line class="st6" x1="18.9" y1="41.8" x2="18.9" y2="33.3"/>
	<line class="st6" x1="13.9" y1="41.8" x2="13.9" y2="33.3"/>
	<line class="st6" x1="15.7" y1="41.8" x2="15.7" y2="33.3"/>
	<line class="st6" x1="17.2" y1="41.8" x2="17.2" y2="33.3"/>
	<line class="st6" x1="23.7" y1="41.8" x2="23.7" y2="33.3"/>
	<line class="st6" x1="20.5" y1="41.8" x2="20.5" y2="33.3"/>
	<line class="st6" x1="22.3" y1="41.8" x2="22.3" y2="33.3"/>
	<line class="st6" x1="98.5" y1="41.8" x2="98.5" y2="33.3"/>
	<line class="st6" x1="100.2" y1="41.8" x2="100.2" y2="33.3"/>
	<line class="st6" x1="101.7" y1="41.8" x2="101.7" y2="33.3"/>
	<line class="st6" x1="108.5" y1="41.8" x2="108.5" y2="33.3"/>
	<line class="st6" x1="103.4" y1="41.8" x2="103.4" y2="33.3"/>
	<line class="st6" x1="105.2" y1="41.8" x2="105.2" y2="33.3"/>
	<line class="st6" x1="106.7" y1="41.8" x2="106.7" y2="33.3"/>
	<line class="st6" x1="113.3" y1="41.8" x2="113.3" y2="33.3"/>
	<line class="st6" x1="110" y1="41.8" x2="110" y2="33.3"/>
	<line class="st6" x1="111.8" y1="41.8" x2="111.8" y2="33.3"/>
	<line class="st6" x1="114.9" y1="41.8" x2="114.9" y2="33.3"/>
	<line class="st6" x1="119.7" y1="41.8" x2="119.7" y2="33.3"/>
	<line class="st6" x1="116.4" y1="41.8" x2="116.4" y2="33.3"/>
	<line class="st6" x1="118.2" y1="41.8" x2="118.2" y2="33.3"/>
	<line class="st5" x1="8" y1="58" x2="25" y2="58"/>
	<line class="st5" x1="8" y1="54.2" x2="25" y2="54.2"/>
</g>
</svg>
