<svg id="Layer_1" data-name="Layer 1" xmlns="http://www.w3.org/2000/svg" viewBox="0 0 114 102.1"><defs><style>.cls-1,.cls-2,.cls-3{fill:none;}.cls-1,.cls-2,.cls-3,.cls-4{stroke:#3888b3;stroke-miterlimit:10;}.cls-1{stroke-width:4.05px;}.cls-3{stroke-width:0.78px;}.cls-4{fill:#fff;}.cls-5{fill:#3888b3;}</style></defs><title>stamp</title><circle class="cls-1" cx="57" cy="51.05" r="49.02"/><circle class="cls-2" cx="57" cy="51.05" r="44.63"/><circle class="cls-3" cx="57" cy="51.05" r="34.67"/><rect class="cls-4" x="0.5" y="39.65" width="113" height="22.8"/><path class="cls-5" d="M16,65.94v3.23a.48.48,0,0,0,.1.33.68.68,0,0,0,.35.18v.23h-3v-.23a.75.75,0,0,0,.36-.18.48.48,0,0,0,.1-.33V60.92a.47.47,0,0,0-.1-.33.75.75,0,0,0-.36-.19v-.23h6.1a10,10,0,0,1,1.76.13,3.24,3.24,0,0,1,1.14.45,2.25,2.25,0,0,1,.84,1,3.19,3.19,0,0,1,.26,1.31q0,2.38-2.64,2.79l1.89,2.69a6.49,6.49,0,0,0,.73.91.91.91,0,0,0,.57.22v.23H20.56v-.23c.24,0,.36-.12.36-.25a1.72,1.72,0,0,0-.33-.62l-2-2.87Zm0-1.61H19.3a8.14,8.14,0,0,0,1,0,1.62,1.62,0,0,0,.55-.18,1.08,1.08,0,0,0,.55-1A1.09,1.09,0,0,0,20.87,62a1.5,1.5,0,0,0-.54-.18,8.12,8.12,0,0,0-1,0H16Z" transform="translate(-7 -12.95)"/><path class="cls-5" d="M36.76,67.43H32.34l-.66,1.37a1.12,1.12,0,0,0-.13.45c0,.21.16.35.47.43v.23H28.8v-.23a.79.79,0,0,0,.44-.2,2,2,0,0,0,.34-.55l3.58-7.49a1.27,1.27,0,0,0,.17-.57c0-.22-.13-.37-.41-.47v-.23h3.45v.23q-.42.12-.42.42a1,1,0,0,0,.14.47L39.8,68.8a2.21,2.21,0,0,0,.41.65.84.84,0,0,0,.48.23v.23H37.1v-.23c.32-.05.48-.2.48-.44a1.07,1.07,0,0,0-.15-.44Zm-.61-1.33-1.58-3.47L33,66.1Z" transform="translate(-7 -12.95)"/><path class="cls-5" d="M49.06,68.31h5.07a.49.49,0,0,0,.32-.1.75.75,0,0,0,.19-.36h.23v2.52h-.23a.75.75,0,0,0-.19-.36.49.49,0,0,0-.32-.1H45.61v-.5l5.66-7.63H46.4a.49.49,0,0,0-.34.1.74.74,0,0,0-.18.36h-.23V59.72h.23a.75.75,0,0,0,.19.36.5.5,0,0,0,.33.09h8.39v.41Z" transform="translate(-7 -12.95)"/><path class="cls-5" d="M61.17,69.16V60.92a.45.45,0,0,0-.1-.33.75.75,0,0,0-.36-.19v-.23h3v.23a.67.67,0,0,0-.35.18.49.49,0,0,0-.1.34v8.24a.49.49,0,0,0,.1.34.68.68,0,0,0,.35.18v.23h-3v-.23a.75.75,0,0,0,.36-.18A.49.49,0,0,0,61.17,69.16Zm3.08-11.84v.19a.53.53,0,0,0-.42.2l-1,1.24a.16.16,0,0,0,0,.11c0,.08.06.11.16.11h0v.2H61.41v-.2a.49.49,0,0,0,.24,0,.51.51,0,0,0,.13-.21l.47-1.16a.3.3,0,0,0,0-.11c0-.08-.06-.12-.2-.14v-.19Z" transform="translate(-7 -12.95)"/><path class="cls-5" d="M75,61.78v7.38a.49.49,0,0,0,.1.34.67.67,0,0,0,.35.18v.23h-3v-.23a.75.75,0,0,0,.36-.18.49.49,0,0,0,.1-.34V61.78h-3a.45.45,0,0,0-.33.1.67.67,0,0,0-.19.36h-.23V59.72h.23a.85.85,0,0,0,.19.36.5.5,0,0,0,.33.09H78a.55.55,0,0,0,.34-.09.67.67,0,0,0,.18-.36h.23v2.52h-.23a.6.6,0,0,0-.18-.36.49.49,0,0,0-.34-.1Z" transform="translate(-7 -12.95)"/><path class="cls-5" d="M88.18,65.37l-1.47,1.18v2.61a.49.49,0,0,0,.1.34.67.67,0,0,0,.36.18v.23h-3v-.23a.67.67,0,0,0,.35-.18.49.49,0,0,0,.1-.34V60.92a.45.45,0,0,0-.1-.33.67.67,0,0,0-.35-.19v-.23h3v.23a.71.71,0,0,0-.36.18.49.49,0,0,0-.1.34v3.4l4-3.27c.18-.15.28-.27.28-.36s-.14-.24-.42-.29v-.23h4v.23a1.16,1.16,0,0,0-.35.12,7.38,7.38,0,0,0-.62.48l-.55.46-3.31,2.66,3.75,4.51a6.71,6.71,0,0,0,.75.81,1.12,1.12,0,0,0,.58.24v.23H91v-.23c.25-.05.38-.14.38-.27a1.79,1.79,0,0,0-.35-.53Z" transform="translate(-7 -12.95)"/><path class="cls-5" d="M104.79,60a5.71,5.71,0,0,1,4,1.38,4.78,4.78,0,0,1,1.58,3.72,4.83,4.83,0,0,1-.75,2.61,5.29,5.29,0,0,1-4.85,2.37,5.71,5.71,0,0,1-4-1.37,4.74,4.74,0,0,1-1.21-1.77,4.87,4.87,0,0,1-.37-1.9,5,5,0,0,1,.75-2.68A5.34,5.34,0,0,1,104.79,60Zm0,1.66a3.36,3.36,0,0,0-2.32.82,3.53,3.53,0,0,0,0,5.12,3.39,3.39,0,0,0,2.33.83,3.36,3.36,0,0,0,2.33-.83,3.32,3.32,0,0,0,.85-1.2,3.5,3.5,0,0,0,.25-1.31,3.25,3.25,0,0,0-1.1-2.61A3.49,3.49,0,0,0,104.8,61.66Z" transform="translate(-7 -12.95)"/></svg>