<?xml version="1.0" encoding="utf-8"?>
<!-- Generator: Adobe Illustrator 22.1.0, SVG Export Plug-In . SVG Version: 6.00 Build 0)  -->
<svg version="1.1" id="Layer_1" xmlns="http://www.w3.org/2000/svg" xmlns:xlink="http://www.w3.org/1999/xlink" x="0px" y="0px"
	 viewBox="0 0 128 128" style="enable-background:new 0 0 128 128;" xml:space="preserve">
<style type="text/css">
	.st0{fill:#3888B3;}
	.st1{fill:#FFFFFF;}
</style>
<g>
	<path class="st0" d="M113.2,42.6c-1.4-6,0.8-11.4,4.3-14.3c0,0,0.1,0,0.1,0c0.9,0,1.6-0.6,1.6-1.4s-0.7-1.4-1.6-1.4
		c-0.9,0-1.5,0.6-1.6,1.3c-3.8,3.2-6.2,9.1-5,15.4c-1.4-0.1-2.7-0.2-3.8-0.1c0-0.1,0-0.1,0-0.2c-2.1-6.1-2.2-12.7-0.3-18.8
		c0.7-0.3,1.3-1,1.3-1.8v0c0-1.1-0.9-2-1.9-2h0c-1.1,0-1.9,0.9-1.9,2v0c0,0.4,0.1,0.7,0.3,1c-2,6.5-2,13.5,0.1,20
		c-2.9,0.2-8.4,0.5-15.1,0.9c-0.1,0-0.1,0.1-0.2,0.1c-10.3,0.4-20.5-0.1-30.5-1.5c-1.5,0-3-0.2-4.4-0.7c-0.1,0-0.1,0-0.2,0
		c0,0,0,0-0.1,0c-0.1,0-0.2-0.1-0.3-0.2c-1.1-0.4-2.2-1-3.2-1.8c-3.7-3-4.9-8.2-1.9-12.3c3.3-4.2,10.2-5.3,13.6-0.6
		c1.9,2.6,1.1,6.1-1.4,7.8c-1.1,0.8-2.5,1.1-3.8,0.9c-0.3,0-3.9-1.6-3.2-2.1c0,0,0.1-0.1,0,0c0.1,0,1.4,0.9,1.5,1
		c1,0.5,2.1,0.6,3.1,0.3c1.8-0.4,3.4-2,3.7-3.9c0.2-1.1-0.1-2.3-0.9-3.2c-2.9-3.8-8.6-2.7-11.2,0.8c-0.9,1.3-1.5,3-1.3,4.7
		c0.6,6.2,8.5,8.2,13.3,6.5c1.9-0.7,3.7-1.9,5.1-3.5c1.4-1.6,2.4-3.6,2.8-5.7c1-5.6-3-10.5-7.7-12.8c-5-2.4-11-2.3-16,0.2
		c-5,2.5-9,7.1-10.4,12.7c-0.7,2.8-0.7,5.7-0.1,8.5c0.1,0.4,2.3,6.3,2.4,6.2c-0.9,0.6-3.6-6.9-3.7-7.4c-0.7-3.2-0.4-6.6,0.7-9.7
		C37.5,21,43,15.9,49.4,14.1c6.4-1.8,13.8-0.3,18.7,4.5c5,5,5.6,12.9,0.7,18.3c-1.4,1.5-3,2.7-4.8,3.6c6.8,0.4,13.6,0.4,20.4-0.1
		c-3.4-3.5-4.4-7.2-5.5-11C78.5,17,66.8,7,52.5,7C37.9,7,26.1,17.3,26.1,30c0,6.8,3.4,12.9,8.8,17.1c-1.1,0.1-2,0.2-2.7,0.3
		C6.7,50.6,10.3,49.6,8.6,54c-2.8,7.3,66.6,4.1,84.9,3.2c18.3-0.9,16-3.8,25.6-5.3C120.7,45.9,117.1,43.5,113.2,42.6z M117.8,26.3
		c0.2,0,0.4,0.3,0.4,0.6c0,0.3-0.2,0.6-0.4,0.6c-0.2,0-0.4-0.3-0.4-0.6C117.4,26.5,117.6,26.3,117.8,26.3z M106,20.7
		c0.2,0,0.4,0.3,0.4,0.6c0,0.3-0.2,0.6-0.4,0.6s-0.4-0.3-0.4-0.6C105.6,20.9,105.8,20.7,106,20.7z"/>
	<g>
		<g>
			<ellipse class="st1" cx="17.4" cy="113" rx="5.8" ry="6"/>
			<path class="st0" d="M17.4,109.3c2,0,3.5,1.7,3.5,3.7s-1.6,3.7-3.5,3.7s-3.5-1.7-3.5-3.7S15.5,109.3,17.4,109.3 M17.4,104.8
				c-4.5,0-8.1,3.7-8.1,8.3c0,4.6,3.6,8.3,8.1,8.3s8.1-3.7,8.1-8.3C25.5,108.5,21.9,104.8,17.4,104.8L17.4,104.8z"/>
		</g>
		<g>
			<ellipse class="st1" cx="92.1" cy="113" rx="5.8" ry="6"/>
			<path class="st0" d="M92.1,109.3c2,0,3.5,1.7,3.5,3.7s-1.6,3.7-3.5,3.7s-3.5-1.7-3.5-3.7S90.2,109.3,92.1,109.3 M92.1,104.8
				c-4.5,0-8.1,3.7-8.1,8.3c0,4.6,3.6,8.3,8.1,8.3c4.5,0,8.1-3.7,8.1-8.3C100.2,108.5,96.6,104.8,92.1,104.8L92.1,104.8z"/>
		</g>
		<path class="st0" d="M15.7,103.1v-6h-9v13.3h1.7C8.8,106.6,12,103.5,15.7,103.1z"/>
		<path class="st0" d="M84.7,104.8l-15.6,0v-0.3c0-0.4-0.3-0.8-0.7-0.8h-0.9c-0.4,0-0.8,0.3-0.8,0.8v0.3l-3.2,0
			c0.1-0.3,0.1-0.7,0.1-1c0-2.7-2.1-4.9-4.8-4.9s-3.7,2.2-3.7,4.9c0,0.4,0,0.7,0.1,1h-1.7c-0.5,0-1-0.4-1-1l-0.1-1.7
			c0-0.3,0.1-0.6,0.3-0.9l0.6-0.5c0.2-0.2,0.4-0.5,0.4-0.8v-3.9c0-0.6-0.5-1-1.1-1h-2.6c-0.1,0-0.3,0-0.4,0.1
			c-3.2,1.4-19.5,9.3-23.4,11.2c-0.5,0.2-0.7,0.8-0.5,1.3c2.3,6.4,0.8,9.2,0.1,11c-0.3,0.7,0.2,1.5,0.9,1.5h51.7
			c4.8,0,4.8,0,4.8-4.9c0-6,0.7-6.8,2.5-8.7C86.1,105.9,85.6,104.8,84.7,104.8z"/>
		<path class="st0" d="M99.9,106.2l20.5,5.1c3.3,3.1-4,1.7-4,1.7v2.7h2.8v4.3h-16v-4.9h8V113h-9.8c0-2.4-1.2-4.8-1.9-6.1
			C99.3,106.6,99.6,106.1,99.9,106.2z"/>
	</g>
</g>
</svg>
