<?xml version="1.0" encoding="utf-8"?>
<!-- Generator: Adobe Illustrator 22.1.0, SVG Export Plug-In . SVG Version: 6.00 Build 0)  -->
<svg version="1.1" id="Layer_1" xmlns="http://www.w3.org/2000/svg" xmlns:xlink="http://www.w3.org/1999/xlink" x="0px" y="0px"
	 viewBox="0 0 128 128" style="enable-background:new 0 0 128 128;" xml:space="preserve">
<style type="text/css">
	.st0{fill:#FFFFFF;}
</style>
<g>
	<path class="st0" d="M116.7,39.3c-1-3.9-0.5-8.2,1.7-11.7c0.9-1.5,5-4.2,4.5-5.4c-1.3-3.3-5.7,3.1-6.4,4.2c-2.3,3.7-3,8.3-2.2,12.5
		c-3.9-0.4-3.2,0.7-4.8-2.3c-1.1-2.1-1.1-5.7-1.1-8c0-2.5,0-5.6,0.9-8c0.5-1.3,2.5-3.5,1.6-5c-3.1-5-4.5,5.3-4.6,6.3
		c-1,5.6-0.6,11.5,1.1,16.9c-9,0.5-18,1.3-27.1,1.1c-6.7-0.1-13.4-0.7-20.1-1.4c-3.9-0.4-7.5-0.6-10.8-3.1
		c-8.1-6.4-1.3-19.6,8.6-16.4c4.5,1.5,7,7,3,10.5c-1.4,1.3-3.3,1.8-5.1,1.4c-0.5-0.1-3.6-1.7-3-2.1c0.1-0.1,4.7,1.8,6.4,0.8
		c2.9-1.6,3.3-5.1,1.1-7.5C56.6,18,49.2,21,47.8,25.9c-1.6,5.8,3.9,9.6,9.1,10.1c5.6,0.5,11.2-3.1,13-8.6
		c5.2-15.8-18.2-20-27.9-13.3c-5,3.5-8.6,9.1-9,15.3c0,0.4,2.2,12.6,3.1,11.9c-0.8,0.6-3.1-5.5-3.3-6.1c-1.1-3.3-1.3-6.6-0.5-10
		c1.9-8,8.7-14.4,16.6-16.3c7.7-1.8,17,0.7,21.4,7.6c4.7,7.4,1.4,16.9-6.6,20.4c7.3,0.4,14.7,0.4,22-0.1c-7.4-7.4-5-18.7-12.2-26.3
		C66.7,3.4,56,0.6,46.3,2.1C25.9,5.2,13.9,29.7,32.5,43.9c-7.8,0.8-15.9,1.3-23.6,3c-2.1,0.5-3.3,0.7-4.2,2.7
		c-2.7,5.8,10.1,5.6,13.3,5.9c25.3,2,51.2,0.4,76.5-0.8c7.3-0.3,14.1-1.1,21-3.6c1.6-0.6,6.6-1.1,7.6-2c1.4-1.5,0.1-5.6-1-6.9
		C120.9,40.5,118.7,39.7,116.7,39.3z M121.7,22c0.6,0.4,0.6,0.8,0,1.3C121.1,22.8,121.1,22.4,121.7,22z M109,16.1
		c0.6,0.4,0.6,0.8,0,1.3C108.4,16.9,108.4,16.5,109,16.1z"/>
</g>
<g>
	<g>
		<path class="st0" d="M12.8,117.7c-3.5,0-6.3-2.8-6.3-6.3s2.8-6.3,6.3-6.3s6.3,2.8,6.3,6.3S16.3,117.7,12.8,117.7z"/>
		<path class="st0" d="M12.8,107.5c2.1,0,3.9,1.7,3.9,3.9c0,2.1-1.7,3.9-3.9,3.9s-3.9-1.7-3.9-3.9C8.9,109.3,10.7,107.5,12.8,107.5
			 M12.8,102.7c-4.8,0-8.7,3.9-8.7,8.7c0,4.8,3.9,8.7,8.7,8.7s8.7-3.9,8.7-8.7C21.5,106.6,17.6,102.7,12.8,102.7L12.8,102.7z"/>
	</g>
	<g>
		<path class="st0" d="M93.2,117.7c-3.5,0-6.3-2.8-6.3-6.3s2.8-6.3,6.3-6.3s6.3,2.8,6.3,6.3S96.7,117.7,93.2,117.7z"/>
		<path class="st0" d="M93.2,107.5c2.1,0,3.9,1.7,3.9,3.9c0,2.1-1.7,3.9-3.9,3.9c-2.1,0-3.9-1.7-3.9-3.9
			C89.3,109.3,91.1,107.5,93.2,107.5 M93.2,102.7c-4.8,0-8.7,3.9-8.7,8.7c0,4.8,3.9,8.7,8.7,8.7s8.7-3.9,8.7-8.7
			C101.9,106.6,98,102.7,93.2,102.7L93.2,102.7z"/>
	</g>
	<path class="st0" d="M11,101v-6.3H1.3v14h1.8C3.5,104.6,6.9,101.3,11,101z"/>
	<path class="st0" d="M85.2,102.7l-16.8,0v-0.3c0-0.4-0.4-0.8-0.8-0.8h-1c-0.4,0-0.9,0.4-0.9,0.8v0.3l-3.4,0
		c0.1-0.3,0.1-0.7,0.1-1.1c0-2.8-2.3-5.1-5.1-5.1s-3.9,2.3-3.9,5.1c0,0.4,0,0.7,0.1,1.1h-1.8c-0.6,0-1.1-0.4-1.1-1l-0.1-1.8
		c0-0.3,0.1-0.7,0.3-0.9l0.6-0.6c0.2-0.2,0.4-0.5,0.4-0.8v-4.1c0-0.6-0.6-1.1-1.2-1.1h-2.8c-0.2,0-0.3,0-0.4,0.1
		c-3.4,1.5-21,9.8-25.2,11.8c-0.5,0.2-0.8,0.8-0.6,1.4c2.5,6.8,0.9,9.7,0.1,11.6c-0.3,0.7,0.2,1.5,1,1.5h55.6c5.1,0,5.1,0,5.1-5.1
		c0-6.3,0.8-7.2,2.6-9.2C86.7,103.8,86.2,102.7,85.2,102.7z"/>
	<path class="st0" d="M101.6,104.2l22.1,5.4c3.5,3.3-4.3,1.8-4.3,1.8v2.9h3v4.6H105v-5.1h8.6v-2.4h-10.5c0-2.5-1.3-5.1-2.1-6.4
		C100.9,104.6,101.2,104.1,101.6,104.2z"/>
</g>
</svg>
