<?xml version="1.0" encoding="utf-8"?>
<!-- Generator: Adobe Illustrator 22.1.0, SVG Export Plug-In . SVG Version: 6.00 Build 0)  -->
<svg version="1.1" id="Layer_1" xmlns="http://www.w3.org/2000/svg" xmlns:xlink="http://www.w3.org/1999/xlink" x="0px" y="0px"
	 viewBox="0 0 128 128" style="enable-background:new 0 0 128 128;" xml:space="preserve">
<style type="text/css">
	.st0{fill:#FFFFFF;}
	.st1{fill:#959595;}
</style>
<g>
	<g>
		<path class="st0" d="M20.4,62.8c0,10.1,0,20.3,0,30.4c0,5.4-3.2,9.1-8.5,9.6c-3.9,0.4-8.5-2.1-9.5-7.3c-0.2-1.1-0.3-2.1-0.3-3.2
			c0-20,0-40,0-59.9c0-2.6,0.4-3.3,2.9-3.5c4.1-0.3,8.1-0.1,12.2-0.1c0.5,0,0.9,0.3,1.4,0.4c1.3,0.4,1.8,1.2,1.8,2.6
			C20.4,42.1,20.4,52.5,20.4,62.8z M13.7,99.2C13.4,99.1,13.2,99,13,99c-4.5-0.4-5.9-1.7-6.9-6.1c-0.2-0.7-0.3-1.3-0.6-1.9
			c-0.1-0.3-0.6-0.5-1-0.5c-0.3,0-0.6,0.4-0.7,0.7c-1.2,2.5,0,6.6,2.4,7.8c1.6,0.8,3.5,1.2,5.3,1.6C12.4,100.8,13.3,100.4,13.7,99.2
			z M4.3,30.1c0,0.2,0,0.5,0,0.7c4.7,0.1,9.4,0.3,14.1-0.1c0-0.2,0-0.4,0-0.6c-2.4,0-4.7,0-7.1,0C9.1,30.1,6.7,30.1,4.3,30.1z"/>
		<path class="st0" d="M40.2,64c-0.5-23.7,19.6-43.1,43.1-42.9c23.5,0.2,42.6,19.9,42.5,43.1c-0.1,23.4-19.8,43.2-43.9,42.6
			C59,106.3,39.8,87,40.2,64z M50.2,42.1c1.9,1.3,3.7,2.4,5.4,3.6c0.8,0.5,1.2,0.9,0.6,1.9c-0.6,1-1.1,0.7-1.9,0.3
			c-1.8-1.1-3.7-2.1-5.5-3.2c-2.4,3.1-5.4,12.6-5.1,16c0,0.3,0.6,0.8,1,0.8c1.8,0.2,3.7,0.3,5.5,0.3c1.1,0,1.4,0.5,1.5,1.5
			c0.1,1.1-0.7,1.1-1.4,1.1c-1.8,0-3.7,0-5.5,0c-0.8,0-1.1,0.3-1.1,1.1c0.1,5.2,1.4,10.2,3.5,15c0.3,0.7,0.7,0.9,1.5,0.5
			c1.5-0.8,3-1.5,4.5-2.2c1.9-0.9,1.9-0.9,2.7,1.3c-2.2,1.3-4.4,2.6-6.6,3.9c2.2,4.5,8.9,11.4,12.1,12.6c0.3-0.4,0.6-0.8,0.8-1.2
			c0.9-1.4,1.9-2.8,2.8-4.3c0.5-0.7,0.9-0.8,1.6-0.4c0.8,0.5,1,1,0.5,1.8c-1.1,1.9-2.2,3.8-3.3,5.6c0.2,0.2,0.2,0.3,0.3,0.4
			c4.8,2.8,10.1,4.2,15.6,4.8c0.3,0,0.9-0.5,0.9-0.9c0.2-1.6,0.3-3.3,0.3-5c0.1-2.1,0.2-2.2,2.4-1.7c0,2,0,4.1,0,6.1
			c0,1.1,0.2,1.5,1.4,1.5c5.2-0.2,10.1-1.4,14.8-3.5c0.3-0.1,0.6-0.4,0.9-0.6c-1-2-1.9-4-2.9-5.9c-0.4-0.8-0.3-1.2,0.5-1.7
			c0.8-0.5,1.3-0.3,1.7,0.5c0.4,0.8,0.9,1.6,1.4,2.5c0.6,1.1,1.3,2.2,2,3.3c4.5-2.3,11.5-9,12.6-12.1c-1.6-1.1-3.3-2.2-4.9-3.3
			c-1.7-1.1-1.7-1.4,0-2.9c2.2,1.2,4.4,2.5,6.5,3.8c0.2-0.1,0.3-0.2,0.3-0.2c2.8-4.9,4.3-10.2,4.9-15.7c0.1-0.7-0.3-0.9-1-0.9
			c-1.8-0.1-3.6-0.2-5.4-0.3c-0.8,0-1.5-0.1-1.5-1.2c0-1.1,0.6-1.2,1.4-1.2c1.8,0,3.5,0,5.3,0c0.9,0,1.2-0.3,1.2-1.2
			c-0.2-1.9-0.3-3.9-0.6-5.7c-0.6-3.6-1.7-7-3.4-10.4c-1.9,0.9-3.6,1.8-5.4,2.7c-1.9,0.9-1.9,0.9-2.7-1.3c2.2-1.3,4.4-2.6,6.7-4
			c-3.1-5.2-7-9.4-12.1-12.7c-1.5,2.2-2.9,4.4-4.4,6.6c-0.7-0.5-1.3-0.8-2-1.3c1.3-2.3,2.6-4.5,3.8-6.7c-0.1-0.2-0.2-0.3-0.2-0.3
			c-4.8-2.8-10.1-4.2-15.6-4.9c-0.8-0.1-1,0.3-1,1c-0.1,1.9-0.2,3.8-0.3,5.7c0,0.8-0.4,1.2-1.3,1.1c-0.8-0.1-1.4-0.2-1.3-1.2
			c0.1-1.7-0.1-3.4,0-5.1c0.1-1.2-0.4-1.5-1.5-1.5c-4.1,0.2-8.1,1-11.9,2.4c-1.2,0.4-2.4,1-3.6,1.5c1.2,2.5,2.4,4.8,3.5,7
			c-1.9,1.4-1.9,1.4-2.9-0.3c-1-1.7-2-3.5-3.1-5.3C57.8,33.1,53.7,37.1,50.2,42.1z"/>
		<path class="st1" d="M13.7,99.2c-0.3,1.2-1.2,1.6-2.1,1.4c-1.8-0.4-3.7-0.8-5.3-1.6c-2.5-1.2-3.6-5.3-2.4-7.8
			c0.1-0.3,0.5-0.7,0.7-0.7c0.3,0,0.8,0.2,1,0.5c0.3,0.6,0.5,1.3,0.6,1.9c1,4.4,2.5,5.7,6.9,6.1C13.2,99,13.4,99.1,13.7,99.2z"/>
		<path class="st1" d="M4.3,30.1c2.4,0,4.7,0,7.1,0c2.4,0,4.7,0,7.1,0c0,0.2,0,0.4,0,0.6c-4.7,0.5-9.4,0.2-14.1,0.1
			C4.4,30.6,4.3,30.4,4.3,30.1z"/>
		<path class="st0" d="M79.4,59.8c-0.3-2.4-0.6-4.9-1-7.3c-0.5-3.5-1-7-1.4-10.5c-0.1-0.6,0.5-1.7,1-1.9c2.6-0.9,3.8-0.5,4.2,2.2
			c0.7,6,1.6,12,2.4,18c0.1,0.4,0.4,0.9,0.7,1.2c1.2,1.3,1.5,2.9,0.7,4.3c-0.7,1.3-2.3,2.1-3.7,1.9c-1.7-0.3-2.8-1.6-3-3.3
			c-0.1-0.6-0.4-1.2-0.8-1.6c-7.3-7.4-14.7-14.8-22-22.2c-0.7-0.7-1.8-1.4-0.8-2.4c0.9-0.9,1.8,0.1,2.5,0.8
			c6.6,6.7,13.3,13.4,19.9,20.1c0.3,0.3,0.7,0.7,1,1C79.3,59.9,79.3,59.8,79.4,59.8z"/>
	</g>
</g>
</svg>
