<?xml version="1.0" encoding="utf-8"?>
<!-- Generator: Adobe Illustrator 22.1.0, SVG Export Plug-In . SVG Version: 6.00 Build 0)  -->
<svg version="1.1" id="Layer_1" xmlns="http://www.w3.org/2000/svg" xmlns:xlink="http://www.w3.org/1999/xlink" x="0px" y="0px"
	 viewBox="0 0 128 128" style="enable-background:new 0 0 128 128;" xml:space="preserve">
<style type="text/css">
	.st0{fill:#FFFFFF;}
</style>
<g>
	<g>
		<path class="st0" d="M5.8,87c0-4.4,3.5-7.9,7.8-7.9c4.3,0,7.9,3.6,7.9,7.9c0,4.3-3.6,7.9-7.9,7.8C9.2,94.8,5.9,91.4,5.8,87z"/>
		<path class="st0" d="M113.7,79c4.3,0,7.9,3.6,7.9,7.9c0,4.3-3.6,7.8-7.9,7.8c-4.3,0-7.8-3.5-7.8-7.8C105.9,82.6,109.4,79,113.7,79
			z"/>
		<path class="st0" d="M127.1,66.6c0-4.9-2.4-8.5-6.6-10.8c-0.8-0.4-1.3-0.9-1.6-1.8c-1.9-5.2-7.1-8.1-11.5-7.9
			c-4.1,0.1-8.1,0-12.2,0.1c-0.4,0-0.8,0-1.4,0.1c0,8.6,0,17.1,0,25.6c-2.7,0.4-2.7,0.4-2.7-2.2c0-11.8,0-23.6,0-35.3
			c0-1.2-0.3-1.6-1.5-1.6c-28.9,0-57.9,0-86.8,0c-1.6,0-1.6,0-1.6,1.7c0,16.4,0,32.9,0,49.3c0,0.5,0,0.9,0,1.5c0.9,0,1.6-0.1,2.3,0
			c1.1,0.1,1.6-0.2,2-1.4c1.1-3.5,4.2-5.7,8.1-5.8c3.6-0.1,7,2.5,8.1,5.9c0.3,0.9,0.6,1.2,1.6,1.2c26.8,0,53.6,0,80.5,0
			c0.9,0,1.4-0.2,1.7-1.2c1.2-3.9,4.6-6,8.3-6c3.9,0.1,6.8,2.4,8.1,6.3c0.1,0.3,0.4,0.8,0.7,0.8c1.4,0.1,2.9,0,4.4,0
			c0-0.7,0-1.1,0-1.6C127.1,77.9,127.1,72.2,127.1,66.6z M112.1,62.3c0,0.7-0.3,1-1,1c-3.4,0-6.8,0-10.3,0c-0.7,0-1-0.3-1-1
			c0-1.8,0-3.6,0-5.4c0-1.8,0-3.6,0-5.4c0-0.7,0.2-1,1-1c1.9,0,3.9,0,5.8,0.1c2.7,0.1,5.3,2.8,5.4,5.5
			C112.2,58.1,112.1,60.2,112.1,62.3z"/>
	</g>
</g>
</svg>
