<?xml version="1.0" encoding="utf-8"?>
<!-- Generator: Adobe Illustrator 22.1.0, SVG Export Plug-In . SVG Version: 6.00 Build 0)  -->
<svg version="1.1" id="Layer_1" xmlns="http://www.w3.org/2000/svg" xmlns:xlink="http://www.w3.org/1999/xlink" x="0px" y="0px"
	 viewBox="0 0 128 128" style="enable-background:new 0 0 128 128;" xml:space="preserve">
<style type="text/css">
	.st0{fill:#FFFFFF;}
</style>
<path class="st0" d="M64,3.6C30.6,3.6,3.6,30.6,3.6,64s27,60.4,60.4,60.4s60.4-27,60.4-60.4S97.4,3.6,64,3.6z M62.2,105.7
	c-4.2,0-7.1-3.2-7.1-7.4c0-4.4,3-7.5,7.2-7.5c4.2,0,7.1,3.1,7.1,7.5C69.4,102.5,66.7,105.7,62.2,105.7z M73.9,60.8
	C68.6,67,66.7,72.3,67,78.4l0.1,3.1h-9.3l-0.2-3.1C56.9,71.9,59,64.8,65,57.6c5.4-6.3,8.4-11,8.4-16.4c0-6.1-3.8-10.2-11.4-10.3
	c-4.3,0-9.1,1.4-12.1,3.7L47,27.1c4-2.9,10.8-4.8,17.1-4.8c13.8,0,20,8.5,20,17.6C84.2,48.1,79.6,53.9,73.9,60.8z"/>
</svg>
