<?xml version="1.0" encoding="utf-8"?>
<!-- Generator: Adobe Illustrator 22.1.0, SVG Export Plug-In . SVG Version: 6.00 Build 0)  -->
<svg version="1.1" id="Layer_1" xmlns="http://www.w3.org/2000/svg" xmlns:xlink="http://www.w3.org/1999/xlink" x="0px" y="0px"
	 viewBox="0 0 128 128" style="enable-background:new 0 0 128 128;" xml:space="preserve">
<style type="text/css">
	.st0{fill:none;stroke:#FFFFFF;stroke-width:3.0702;stroke-miterlimit:10;}
	.st1{fill:none;stroke:#FFFFFF;stroke-width:2.0467;stroke-miterlimit:10;}
	.st2{fill:none;stroke:#FFFFFF;stroke-width:1.1592;stroke-miterlimit:10;}
	.st3{fill:none;stroke:#FFFFFF;stroke-width:1.0234;stroke-miterlimit:10;}
	.st4{fill:none;stroke:#FFFFFF;stroke-width:0.7236;stroke-miterlimit:10;}
	.st5{fill:none;stroke:#FFFFFF;stroke-width:2.0562;stroke-miterlimit:10;}
	.st6{fill:none;stroke:#FFFFFF;stroke-width:2.1863;stroke-miterlimit:10;}
	.st7{fill:#FFFFFF;}
</style>
<rect x="2.6" y="23" class="st0" width="122.8" height="79.8"/>
<line class="st0" x1="31.8" y1="33.7" x2="96.2" y2="33.7"/>
<line class="st0" x1="31.8" y1="39.8" x2="84" y2="39.8"/>
<line class="st1" x1="8.7" y1="74.7" x2="22" y2="74.7"/>
<line class="st1" x1="25.6" y1="74.7" x2="38.9" y2="74.7"/>
<line class="st1" x1="8.7" y1="69.6" x2="22" y2="69.6"/>
<line class="st1" x1="8.7" y1="80" x2="22" y2="80"/>
<line class="st1" x1="25.6" y1="80" x2="38.9" y2="80"/>
<line class="st1" x1="25.1" y1="69.6" x2="38.4" y2="69.6"/>
<line class="st2" x1="8.7" y1="86.2" x2="43.1" y2="86.2"/>
<line class="st3" x1="8.7" y1="45.6" x2="116.1" y2="45.6"/>
<line class="st4" x1="7.7" y1="40.1" x2="7.7" y2="31.5"/>
<line class="st4" x1="9.4" y1="40.1" x2="9.4" y2="31.5"/>
<line class="st4" x1="11" y1="40.1" x2="11" y2="31.5"/>
<line class="st4" x1="17.8" y1="40.1" x2="17.8" y2="31.5"/>
<line class="st4" x1="12.7" y1="40.1" x2="12.7" y2="31.5"/>
<line class="st4" x1="14.5" y1="40.1" x2="14.5" y2="31.5"/>
<line class="st4" x1="16.1" y1="40.1" x2="16.1" y2="31.5"/>
<line class="st4" x1="22.8" y1="40.1" x2="22.8" y2="31.5"/>
<line class="st4" x1="19.5" y1="40.1" x2="19.5" y2="31.5"/>
<line class="st4" x1="21.4" y1="40.1" x2="21.4" y2="31.5"/>
<line class="st4" x1="99.3" y1="40.1" x2="99.3" y2="31.5"/>
<line class="st4" x1="101" y1="40.1" x2="101" y2="31.5"/>
<line class="st4" x1="102.6" y1="40.1" x2="102.6" y2="31.5"/>
<line class="st4" x1="109.5" y1="40.1" x2="109.5" y2="31.5"/>
<line class="st4" x1="104.3" y1="40.1" x2="104.3" y2="31.5"/>
<line class="st4" x1="106.2" y1="40.1" x2="106.2" y2="31.5"/>
<line class="st4" x1="107.7" y1="40.1" x2="107.7" y2="31.5"/>
<line class="st4" x1="114.5" y1="40.1" x2="114.5" y2="31.5"/>
<line class="st4" x1="111" y1="40.1" x2="111" y2="31.5"/>
<line class="st4" x1="112.9" y1="40.1" x2="112.9" y2="31.5"/>
<line class="st4" x1="116.1" y1="40.1" x2="116.1" y2="31.5"/>
<line class="st4" x1="121" y1="40.1" x2="121" y2="31.5"/>
<line class="st4" x1="117.6" y1="40.1" x2="117.6" y2="31.5"/>
<line class="st4" x1="119.5" y1="40.1" x2="119.5" y2="31.5"/>
<line class="st3" x1="6.7" y1="56.7" x2="24.1" y2="56.7"/>
<line class="st3" x1="6.7" y1="52.8" x2="24.1" y2="52.8"/>
<circle class="st5" cx="84" cy="74.1" r="24.6"/>
<rect x="51.5" y="63.9" class="st6" width="64.8" height="19"/>
<g>
	<path class="st7" d="M74.3,73.3c-0.1-1.5-0.2-3.4-0.2-4.8l0,0c-0.3,1.3-0.9,2.7-1.4,4.3l-2,5.4h-1.1l-1.8-5.3c-0.5-1.5-1-3-1.3-4.4
		l0,0c0,1.4-0.1,3.3-0.2,4.9L66,78.3h-1.4l0.8-11.2h2l1.9,5.4c0.4,1.4,0.9,2.6,1.1,3.7l0,0c0.3-1.1,0.7-2.3,1.2-3.7l2-5.4h1.9
		l0.8,11.2h-1.4L74.3,73.3z"/>
	<path class="st7" d="M79.7,67.1v6.6c0,2.5,1.1,3.5,2.6,3.5c1.6,0,2.7-1.1,2.7-3.5v-6.6h1.4v6.5c0,3.4-1.8,4.8-4.2,4.8
		c-2.3,0-4.1-1.3-4.1-4.7v-6.6H79.7z"/>
	<path class="st7" d="M89.1,67.2c0.9-0.1,2-0.2,3.1-0.2c2.1,0,3.5,0.4,4.5,1.4c1,0.9,1.5,2.2,1.5,4.1s-0.5,3.3-1.6,4.4
		s-2.7,1.6-4.9,1.6c-1,0-1.9,0-2.6-0.1V67.2H89.1z M90.5,77.1c0.3,0.1,0.9,0.1,1.4,0.1c3.1,0,4.7-1.8,4.7-4.7c0-2.6-1.4-4.3-4.5-4.3
		c-0.8,0-1.3,0.1-1.6,0.1C90.5,68.3,90.5,77.1,90.5,77.1z"/>
	<path class="st7" d="M100.1,72.7c0-1,0-1.8-0.1-2.5h1.3v1.5h0.1c0.3-1.1,1.2-1.8,2.2-1.8c0.2,0,0.3,0,0.4,0v1.4c-0.1,0-0.3,0-0.5,0
		c-1,0-1.8,0.8-2,1.9c0,0.2-0.1,0.4-0.1,0.7v4.3h-1.4v-5.5H100.1z"/>
	<path class="st7" d="M104.2,77.4c0-0.7,0.4-1.1,1-1.1c0.5,0,1,0.4,1,1.1c0,0.5-0.3,1.1-1,1.1C104.7,78.4,104.2,78,104.2,77.4z"/>
</g>
</svg>
