<?xml version="1.0" encoding="utf-8"?>
<!-- Generator: Adobe Illustrator 22.1.0, SVG Export Plug-In . SVG Version: 6.00 Build 0)  -->
<svg version="1.1" id="Layer_1" xmlns="http://www.w3.org/2000/svg" xmlns:xlink="http://www.w3.org/1999/xlink" x="0px" y="0px"
	 viewBox="0 0 128 128" style="enable-background:new 0 0 128 128;" xml:space="preserve">
<style type="text/css">
	.st0{display:none;fill:#008FBA;}
	.st1{enable-background:new    ;}
	.st2{fill:#EAEAEA;}
	.st3{fill:#B5B4B4;}
	.st4{fill:#FFFFFF;}
	.st5{fill:#1D465C;}
	.st6{fill:#122B38;}
	.st7{fill:#48A9E0;}
	.st8{fill:#898989;}
	.st9{fill:#4F4F4F;}
	.st10{fill:#FF9E2E;}
	.st11{fill:#A5A5A5;}
	.st12{fill:#636363;}
	.st13{fill:#BCBCBC;}
	.st14{fill:#E3E3E3;}
	.st15{fill:#595959;}
</style>
<rect class="st0" width="128" height="128"/>
<g>
	<g class="st1">
		<g>
			<polygon class="st2" points="29.7,104.3 25.5,113.8 15.2,115 19.4,105.5 			"/>
		</g>
		<g>
			<polygon class="st3" points="19.4,105.5 15.2,115 9,106.7 13.2,97.1 			"/>
		</g>
		<g>
			<polygon class="st4" points="29.7,104.3 19.4,105.5 13.2,97.1 23.5,95.9 			"/>
		</g>
	</g>
</g>
<g>
	<g class="st1">
		<g>
			<polygon class="st2" points="45.8,101 45.8,112.9 35.6,118.8 35.6,107 			"/>
		</g>
		<g>
			<polygon class="st3" points="35.6,107 35.6,118.8 25.2,112.9 25.3,101 			"/>
		</g>
		<g>
			<polygon class="st4" points="45.8,101 35.6,107 25.3,101 35.5,95.1 			"/>
		</g>
	</g>
</g>
<g>
	<g class="st1">
		<g>
			<polygon class="st2" points="38.7,75.6 38.7,87.4 28.4,93.4 28.5,81.5 			"/>
		</g>
		<g>
			<polygon class="st3" points="28.5,81.5 28.4,93.4 18.1,87.4 18.2,75.6 			"/>
		</g>
		<g>
			<polygon class="st4" points="38.7,75.6 28.5,81.5 18.2,75.6 28.4,69.6 			"/>
		</g>
	</g>
</g>
<path class="st5" d="M4.7,111.5H49c0.4,0,0.7-0.2,1-0.4c2-2.4,12.7-13.8,34.4-14.6c24.2-0.8,35-1.1,38.9,0c3.9,1.1,2.6,3.2-5,2.9
	s-38.2-1.7-49.7,2.9s-13.7,7.9-17.1,11.9c-3.4,4.1-12.9,13.3-22.4,13.3c-8.9,0-17.4-3.5-25.3-14C3.1,112.7,3.7,111.5,4.7,111.5z"/>
<path class="st6" d="M125,97.2c-0.9,0.6-3.1,1-6.7,0.9c-7.6-0.3-38.2-1.7-49.7,2.9c-11.6,4.7-13.7,7.9-17.1,11.9
	c-3.4,4.1-12.9,13.3-22.4,13.3c-8.9,0-17.4-3.5-25.3-14c0,0-0.1-0.1-0.1-0.2c-0.2,0.4-0.3,1,0.1,1.4c8,10.5,16.4,14,25.3,14
	c9.5,0,18.9-9.2,22.4-13.3c3.4-4.1,5.5-7.2,17.1-11.9c11.6-4.7,42.1-3.2,49.7-2.9C124.4,99.6,126.4,98.3,125,97.2z"/>
<path class="st7" d="M4.7,112.5H49c0.4,0,0.7-0.2,1-0.4c2-2.4,12.7-13.8,34.4-14.6c24.2-0.8,35-1.1,38.9,0c0.9,0.3,1.6,0.6,1.9,0.9
	c0.7-0.6,0-1.4-1.9-1.9c-3.9-1.1-14.7-0.8-38.9,0C62.7,97.2,52,108.6,50,111.1c-0.2,0.3-0.6,0.4-1,0.4H4.7c-0.9,0-1.5,1-1.2,1.8
	C3.7,112.8,4.2,112.5,4.7,112.5z"/>
<path class="st8" d="M115,72.3H67.8c-1.8,0-3.3-1.5-3.3-3.3V4.4c0-1.8,1.5-3.3,3.3-3.3H115c1.8,0,3.3,1.5,3.3,3.3V69
	C118.3,70.8,116.8,72.3,115,72.3z"/>
<g>
	<rect x="87.9" y="65.4" class="st9" width="7.2" height="18.9"/>
	<rect x="88.4" y="79.2" class="st10" width="1.7" height="4.5"/>
	<rect x="90.6" y="79.2" class="st10" width="1.7" height="4.5"/>
	<rect x="92.7" y="79.2" class="st10" width="1.7" height="4.5"/>
</g>
<path class="st11" d="M117.4,2.1c0.1,0.3,0.2,0.6,0.2,1v64.6c0,1.8-1.4,3.2-3.2,3.2H68.6c-1.8,0-3.2-1.4-3.2-3.2V3.1
	c0-0.3,0.1-0.7,0.2-1c-0.6,0.6-0.9,1.4-0.9,2.3V69c0,1.8,1.5,3.3,3.3,3.3H115c1.8,0,3.3-1.5,3.3-3.3V4.4
	C118.3,3.5,118,2.7,117.4,2.1z"/>
<path class="st12" d="M115,1.1H67.8c-1.8,0-3.3,1.5-3.3,3.3V69c0,0.9,0.4,1.8,1,2.4c-0.2-0.4-0.2-0.8-0.2-1.2V5.5
	c0-1.8,1.4-3.2,3.2-3.2h45.7c1.8,0,3.2,1.4,3.2,3.2v64.6c0,0.4-0.1,0.9-0.2,1.2c0.6-0.6,1-1.4,1-2.4V4.4
	C118.3,2.6,116.8,1.1,115,1.1z"/>
<rect x="69" y="11.4" class="st4" width="44.9" height="24.7"/>
<rect x="72.2" y="42.8" class="st13" width="16.3" height="6.2"/>
<rect x="94.1" y="42.8" class="st13" width="16.3" height="6.2"/>
<rect x="72.2" y="51.5" class="st13" width="38.5" height="4.7"/>
<rect x="72.2" y="58.9" class="st14" width="38.5" height="9.5"/>
<g>
	<path class="st15" d="M70.7,19.7c0.6-0.1,1.2-0.1,2-0.1c1.3,0,2.3,0.3,2.9,0.9c0.6,0.6,1,1.4,1,2.6c0,1.2-0.4,2.1-1,2.8
		c-0.7,0.7-1.8,1-3.2,1c-0.7,0-1.2,0-1.7-0.1V19.7z M71.6,26.1c0.2,0,0.6,0.1,0.9,0.1c2,0,3.1-1.1,3.1-3.1c0-1.7-1-2.8-2.9-2.8
		c-0.5,0-0.8,0-1.1,0.1V26.1z"/>
	<path class="st15" d="M78.7,19.6v7.2h-0.9v-7.2H78.7z"/>
	<path class="st15" d="M81.5,24.5l-0.7,2.3h-1l2.4-7.2h1.1l2.5,7.2h-1l-0.8-2.3H81.5z M83.9,23.8l-0.7-2.1c-0.2-0.5-0.3-0.9-0.4-1.3
		h0c-0.1,0.4-0.2,0.9-0.4,1.3l-0.7,2.1H83.9z"/>
	<path class="st15" d="M86.9,19.7c0.4-0.1,1-0.1,1.7-0.1c0.9,0,1.5,0.2,2,0.5c0.4,0.3,0.6,0.7,0.6,1.3c0,0.7-0.5,1.3-1.2,1.6v0
		c0.7,0.2,1.5,0.7,1.5,1.8c0,0.6-0.2,1.1-0.6,1.4c-0.5,0.5-1.3,0.7-2.5,0.7c-0.6,0-1.1,0-1.4-0.1V19.7z M87.8,22.6h0.8
		c1,0,1.6-0.5,1.6-1.2c0-0.8-0.6-1.2-1.6-1.2c-0.4,0-0.7,0-0.8,0.1V22.6z M87.8,26.1c0.2,0,0.4,0,0.8,0c1,0,1.9-0.4,1.9-1.4
		c0-1-0.8-1.4-1.9-1.4h-0.8V26.1z"/>
	<path class="st15" d="M96.4,23.4h-2.8V26h3.1v0.8h-4.1v-7.2h3.9v0.8h-3v2.3h2.8V23.4z"/>
	<path class="st15" d="M99.5,20.4h-2.2v-0.8h5.3v0.8h-2.2v6.4h-0.9V20.4z"/>
	<path class="st15" d="M107.2,23.4h-2.8V26h3.1v0.8h-4.1v-7.2h3.9v0.8h-3v2.3h2.8V23.4z"/>
	<path class="st15" d="M108.6,25.7c0.4,0.3,1,0.5,1.7,0.5c1,0,1.5-0.5,1.5-1.2c0-0.7-0.4-1.1-1.4-1.4c-1.2-0.4-1.9-1-1.9-2
		c0-1.1,0.9-2,2.3-2c0.7,0,1.3,0.2,1.6,0.4l-0.3,0.8c-0.2-0.1-0.7-0.3-1.4-0.3c-1,0-1.4,0.6-1.4,1.1c0,0.7,0.4,1,1.4,1.4
		c1.2,0.5,1.8,1.1,1.8,2.1c0,1.1-0.8,2.1-2.5,2.1c-0.7,0-1.5-0.2-1.8-0.5L108.6,25.7z"/>
</g>
</svg>
