<?xml version="1.0" encoding="utf-8"?>
<!-- Generator: Adobe Illustrator 22.1.0, SVG Export Plug-In . SVG Version: 6.00 Build 0)  -->
<svg version="1.1" id="Layer_1" xmlns="http://www.w3.org/2000/svg" xmlns:xlink="http://www.w3.org/1999/xlink" x="0px" y="0px"
	 viewBox="0 0 128 128" style="enable-background:new 0 0 128 128;" xml:space="preserve">
<style type="text/css">
	.st0{fill:#FFCD69;}
	.st1{fill:#FFD98F;}
	.st2{fill:#2B6A8B;}
	.st3{fill:#E3B04D;}
</style>
<g>
	<path class="st0" d="M65.8,67v4.6c0,1.4-2.5,2.9-7.2,3.8c-8.3,1.7-20.3,1.3-26.9-0.9c-2.8-0.9-4.2-2-4.2-3.1v-4.6
		c0,1.1,1.4,2.2,4.2,3.1c6.6,2.1,18.7,2.5,26.9,0.9C63.4,69.9,65.8,68.4,65.8,67z"/>
	<path class="st0" d="M65.8,61v4.6c0,1.4-2.5,2.9-7.2,3.8c-8.3,1.7-20.3,1.3-26.9-0.9c-2.8-0.9-4.2-2-4.2-3.1v-4.6
		c0,1.1,1.4,2.2,4.2,3.1c6.6,2.1,18.7,2.5,26.9,0.9C63.4,63.9,65.8,62.5,65.8,61z"/>
	<path class="st0" d="M65.8,55.1v4.6c0,1.4-2.5,2.9-7.2,3.8c-8.3,1.7-20.3,1.3-26.9-0.9c-2.8-0.9-4.2-2-4.2-3.1v-4.6
		c0,1.1,1.4,2.2,4.2,3.1c6.6,2.1,18.7,2.5,26.9,0.9C63.4,58,65.8,56.5,65.8,55.1z"/>
	<path class="st0" d="M65.8,49.2v4.6c0,1.4-2.5,2.9-7.2,3.8c-8.3,1.7-20.3,1.3-26.9-0.9c-2.8-0.9-4.2-2-4.2-3.1V49
		c0,1.1,1.4,2.2,4.2,3.1c6.6,2.1,18.7,2.5,26.9,0.9C63.4,52,65.8,50.6,65.8,49.2z"/>
	<path class="st0" d="M65.8,43.2v4.6c0,1.4-2.5,2.9-7.2,3.8c-8.3,1.7-20.3,1.3-26.9-0.9c-2.8-0.9-4.2-2-4.2-3.1V43
		c0,1.1,1.4,2.2,4.2,3.1c6.6,2.1,18.7,2.5,26.9,0.9C63.4,46.1,65.8,44.6,65.8,43.2z"/>
	<path class="st0" d="M65.8,37.3v4.6c0,1.4-2.5,2.9-7.2,3.8c-8.3,1.7-20.3,1.3-26.9-0.9c-2.8-0.9-4.2-2-4.2-3.1v-4.6
		c0,1.1,1.4,2.2,4.2,3.1c6.6,2.1,18.7,2.5,26.9,0.9C63.4,40.1,65.8,38.7,65.8,37.3z"/>
	<path class="st1" d="M61.6,32.9c6.6,2.1,5.2,5.2-3,6.9c-8.3,1.7-20.3,1.3-26.9-0.9c-6.6-2.1-5.2-5.2,3-6.9
		C43,30.3,55,30.7,61.6,32.9z"/>
</g>
<g>
	<g>
		<polygon class="st2" points="57.7,21.6 57.7,101.7 84.5,104.1 115.4,100 115.5,21.6 		"/>
	</g>
	<path class="st0" d="M115.5,94.7v6.9c0,2.2-3.7,4.3-10.9,5.7C92.1,109.8,74,109.2,64,106c-4.3-1.4-6.3-3-6.3-4.6v-6.9
		c0,1.6,2.1,3.3,6.3,4.6c10,3.2,28.1,3.8,40.6,1.3C111.7,99,115.5,96.9,115.5,94.7z"/>
	<path class="st0" d="M104.6,91.5C92.1,94,74,93.4,64,90.2c-4.3-1.4-6.3-3-6.3-4.6v6.9c0,1.6,2.1,3.3,6.3,4.6
		c10,3.2,28.1,3.8,40.6,1.3c7.1-1.4,10.9-3.6,10.9-5.7v-6.9C115.5,87.9,111.7,90.1,104.6,91.5z"/>
	<path class="st0" d="M104.6,82.6C92.1,85.1,74,84.5,64,81.2c-4.3-1.4-6.3-3-6.3-4.6v6.9c0,1.6,2.1,3.3,6.3,4.6
		c10,3.2,28.1,3.8,40.6,1.3c7.1-1.4,10.9-3.6,10.9-5.7v-6.9C115.5,79,111.7,81.1,104.6,82.6z"/>
	<path class="st0" d="M104.6,73.6C92.1,76.1,74,75.5,64,72.3c-4.3-1.4-6.3-3-6.3-4.6v6.9c0,1.6,2.1,3.3,6.3,4.6
		c10,3.2,28.1,3.8,40.6,1.3c7.1-1.4,10.9-3.6,10.9-5.7v-6.9C115.5,70,111.7,72.2,104.6,73.6z"/>
	<path class="st0" d="M104.6,64.6C92.1,67.1,74,66.5,64,63.3c-4.3-1.4-6.3-3-6.3-4.6v6.9c0,1.6,2.1,3.3,6.3,4.6
		c10,3.2,28.1,3.8,40.6,1.3c7.1-1.4,10.9-3.6,10.9-5.7v-6.9C115.5,61.1,111.7,63.2,104.6,64.6z"/>
	<path class="st0" d="M104.6,55.7C92.1,58.2,74,57.6,64,54.3c-4.3-1.4-6.3-3-6.3-4.6v6.9c0,1.6,2.1,3.3,6.3,4.6
		c10,3.2,28.1,3.8,40.6,1.3c7.1-1.4,10.9-3.6,10.9-5.7v-6.9C115.5,52.1,111.7,54.2,104.6,55.7z"/>
	<path class="st0" d="M104.6,47.3C92.1,49.8,74,49.2,64,45.9c-4.3-1.4-6.3-3-6.3-4.6v6.9c0,1.6,2.1,3.3,6.3,4.6
		c10,3.2,28.1,3.8,40.6,1.3c7.1-1.4,10.9-3.6,10.9-5.7v-6.9C115.5,43.7,111.7,45.8,104.6,47.3z"/>
	<path class="st0" d="M104.6,38.3C92.1,40.8,74,40.2,64,37c-4.3-1.4-6.3-3-6.3-4.6v6.9c0,1.6,2.1,3.3,6.3,4.6
		c10,3.2,28.1,3.8,40.6,1.3c7.1-1.4,10.9-3.6,10.9-5.7v-6.9C115.5,34.7,111.7,36.9,104.6,38.3z"/>
	<path class="st0" d="M64,34.9c10,3.2,28.1,3.8,40.6,1.3c7.1-1.4,10.9-3.6,10.9-5.7v-6.9c0,2.2-3.7,4.3-10.9,5.7
		C92.1,31.8,74,31.3,64,28c-4.3-1.4-6.3-3-6.3-4.6v6.9C57.7,31.9,59.7,33.5,64,34.9z"/>
	<path class="st1" d="M64,26.5c10,3.2,28.1,3.8,40.6,1.3s14.5-7.2,4.6-10.4c-10-3.2-28.1-3.8-40.6-1.3C56.1,18.7,54.1,23.3,64,26.5z
		"/>
</g>
<g>
	<polygon class="st2" points="61.7,55.1 72.3,58.9 74.1,82.5 61.7,108.3 49.4,112 44.3,110.1 	"/>
	<g>
		<path class="st3" d="M78.7,69.9c-1-6.2-3.7-10.1-7.4-11.5l-7-2.6c3.7,1.4,6.5,5.3,7.4,11.5c2,12.6-4.2,29.8-13.8,38.4
			c-4.9,4.4-9.7,5.7-13.5,4.3l7,2.6c3.8,1.4,8.6,0.1,13.5-4.3C74.5,99.7,80.7,82.5,78.7,69.9z"/>
		<path class="st1" d="M70.1,66.8c2,12.6-4.2,29.8-13.8,38.4s-19,5.4-20.9-7.2s4.2-29.8,13.8-38.4C58.7,51,68.1,54.2,70.1,66.8z"/>
	</g>
</g>
</svg>
