<?xml version="1.0" encoding="utf-8"?>
<!-- Generator: Adobe Illustrator 22.1.0, SVG Export Plug-In . SVG Version: 6.00 Build 0)  -->
<svg version="1.1" id="Layer_1" xmlns="http://www.w3.org/2000/svg" xmlns:xlink="http://www.w3.org/1999/xlink" x="0px" y="0px"
	 viewBox="0 0 128 128" style="enable-background:new 0 0 128 128;" xml:space="preserve">
<style type="text/css">
	.st0{fill:#00B8FF;}
	.st1{fill:#FF5AA5;}
</style>
<g>
	<path class="st0" d="M102.5,0.5H87.4v3.6h11.2l-6,6.1l-7.3,7.3c-4.8-3.4-10.8-5.5-17.2-5.5c-14.4,0-26.4,10.3-29.1,24
		c1.9-0.9,4-1.6,6.2-2.1c3.2-9.6,12.3-16.4,22.9-16.4c13.4,0,24.2,10.8,24.2,24.2c0,8.5-4.4,15.9-11,20.3c0,0.3,0,0.7,0,1
		c0,1.9-0.2,3.7-0.5,5.5c10-4.7,16.9-14.9,16.9-26.8c0-8-3.1-15.2-8.3-20.5l7-7l6.1-6v7.6h3.6V0.5H102.5z"/>
	<path class="st0" d="M43.9,41.6c0-0.6,0-1.2,0.1-1.8c-1.9,0.6-3.8,1.5-5.5,2.6c0.5,16,13.5,28.7,29.6,28.7c2.2,0,4.4-0.3,6.5-0.7
		c0.6-1.9,1-3.9,1.2-6c-2.4,0.8-5,1.3-7.7,1.3C54.7,65.7,43.9,54.9,43.9,41.6z"/>
	<path class="st1" d="M51.6,87.1c-13.4,0-24.2-10.9-24.2-24.2c0-8.5,4.4-16.1,11.1-20.4c0-0.3,0-0.6,0-0.9c0-1.9,0.2-3.8,0.5-5.6
		c-10.1,4.7-17.1,15-17.1,26.9c0,15.4,11.7,28,26.6,29.5v15.4H31.8v6.1h16.8v13.7h6.1v-13.7h16v-6.1h-16V92.4
		c13.1-1.3,23.7-11.2,26.1-24c-2,0.9-4,1.6-6.2,2.1C71.4,80.1,62.3,87.1,51.6,87.1z"/>
	<path class="st0" d="M38.5,42.4c1.7-1.1,3.5-2,5.5-2.6c0.1-2.1,0.6-4.1,1.2-6C43,34.3,40.9,35,39,35.9c-0.4,1.8-0.5,3.7-0.5,5.6
		C38.5,41.8,38.5,42.1,38.5,42.4z"/>
	<path class="st1" d="M81.2,61.8c-0.5-15.9-13.6-28.7-29.7-28.7c-2.2,0-4.3,0.2-6.4,0.7c-0.6,1.9-1.1,3.9-1.2,6
		c2.4-0.8,5-1.2,7.6-1.2c13.4,0,24.2,10.9,24.2,24.2c0,0.6,0,1.1-0.1,1.7c-0.1,2.1-0.5,4.1-1.2,6c2.2-0.5,4.2-1.2,6.2-2.1
		c0.3-1.8,0.5-3.6,0.5-5.5C81.3,62.5,81.3,62.1,81.2,61.8z"/>
</g>
</svg>
