<?xml version="1.0" encoding="utf-8"?>
<!-- Generator: Adobe Illustrator 22.1.0, SVG Export Plug-In . SVG Version: 6.00 Build 0)  -->
<svg version="1.1" id="Layer_1" xmlns="http://www.w3.org/2000/svg" xmlns:xlink="http://www.w3.org/1999/xlink" x="0px" y="0px"
	 viewBox="0 0 128 128" style="enable-background:new 0 0 128 128;" xml:space="preserve">
<style type="text/css">
	.st0{fill:#8C301B;}
</style>
<path class="st0" d="M124.8,101.6c-1.1-7.9-4.3-14-10.5-19c-2.4-1.9-7.1-3.8-8.6-6.6c-1.6-3.1-0.8-7.6-2.3-11
	c-1.9-4-5.7-6.1-7.8-9.8c-1.8-3.1-1.2-6.7-2.6-10c-2.7-6.2-8.3-6.9-14.3-8.2c4.7-11.5,3-20.8-7.1-29c1.1,8.9,2.6,13.8-7.5,14.9
	C55.3,24.1,44,26.6,40,36c-3.4,8,0,12.1-8.4,17.3C24,58.1,20.1,68,29.5,73.9c-15.4,3.5-25.2,9.8-26.4,26.7
	c-1.3,19.7,18.3,18.6,33,18.9c18.2,0.4,36.5,0.5,54.8,0.3C103.6,119.6,127.6,121.8,124.8,101.6z M78.3,59.4c8.8,0,9.7,13.2,1.2,14.5
	C69.6,75.4,68,59.4,78.3,59.4z M47.8,59.4c10.1,0.1,8.7,15.9-1.2,14.5C38,72.7,38.9,59.4,47.8,59.4z M92.4,96
	c-11.3,5.6-21.8,9.4-34.6,7.8c-5.6-0.7-11-2.2-16.1-4.5c-4.1-1.9-11.6-7.8-2.6-7.6c3.6,0.1,9.8,5.5,13.8,6.5
	c5.5,1.5,11.3,1.8,16.9,0.9c5.3-0.8,9.8-2.9,14.6-5.3c1.9-1,4.9-3.9,7.4-1.9C93,93,94.7,94.8,92.4,96z"/>
</svg>
