<?xml version="1.0" encoding="utf-8"?>
<!-- Generator: Adobe Illustrator 22.1.0, SVG Export Plug-In . SVG Version: 6.00 Build 0)  -->
<svg version="1.1" id="Layer_1" xmlns="http://www.w3.org/2000/svg" xmlns:xlink="http://www.w3.org/1999/xlink" x="0px" y="0px"
	 viewBox="0 0 800 800" style="enable-background:new 0 0 800 800;" xml:space="preserve">
<style type="text/css">
	.st0{display:none;fill:#04B27C;}
	.st1{fill:none;}
	.st2{fill:#FFFFFF;}
	.st3{fill:#1DABDA;stroke:#FFFFFF;stroke-width:15.4523;stroke-miterlimit:10;}
	.st4{fill:none;stroke:#FFFFFF;stroke-width:7.7261;stroke-miterlimit:10;}
	.st5{fill:#9E1313;}
	.st6{fill:#EFC470;stroke:#FFFFFF;stroke-width:15.4523;stroke-miterlimit:10;}
	.st7{fill:#7ECBC7;stroke:#FFFFFF;stroke-width:15.4523;stroke-miterlimit:10;}
	.st8{fill:#736898;stroke:#FFFFFF;stroke-width:15.4523;stroke-miterlimit:10;}
</style>
<rect class="st0" width="800" height="800"/>
<g>
	<path class="st1" d="M73,612c0,20.2,16.7,36.7,37,36.7c20.2,0,37-16.5,37-36.7V220.4H73V612z"/>
	<path class="st2" d="M147,220.4V612c0,20.2-16.7,36.7-37,36.7c-20.2,0-37-16.5-37-36.7V220.4H60.9V612c0,27.3,22.3,49.5,49.7,49.5
		c27.3,0,49.7-22.2,49.7-49.5V220.4H147z"/>
	<path class="st3" d="M177.5,225.7H43V152c0,0,35.5-13.6,67.3-13.6c35.3,0,67.3,13.6,67.3,13.6V225.7z"/>
	<line class="st4" x1="64.7" y1="169.6" x2="64.7" y2="214.9"/>
	<line class="st4" x1="86.8" y1="159.7" x2="86.8" y2="209.4"/>
	<line class="st4" x1="108.9" y1="153.1" x2="108.9" y2="210.5"/>
	<line class="st4" x1="131" y1="159.7" x2="131" y2="209.4"/>
	<line class="st4" x1="153" y1="169.6" x2="153" y2="214.9"/>
	<g>
		<path class="st5" d="M147,453.3H73V612c0,20.2,16.7,36.7,37,36.7c20.2,0,37-16.5,37-36.7V453.3z"/>
	</g>
	<rect x="60.9" y="342" class="st2" width="45" height="172.8"/>
</g>
<g>
	<path class="st1" d="M266.2,612c0,20.2,16.7,36.7,37,36.7c20.2,0,37-16.5,37-36.7V220.4h-74V612z"/>
	<path class="st2" d="M340.1,220.4V612c0,20.2-16.7,36.7-37,36.7c-20.2,0-37-16.5-37-36.7V220.4H254V612c0,27.3,22.3,49.5,49.7,49.5
		c27.3,0,49.7-22.2,49.7-49.5V220.4H340.1z"/>
	<path class="st6" d="M370.7,225.7H236.2V152c0,0,35.5-13.6,67.3-13.6c35.3,0,67.3,13.6,67.3,13.6V225.7z"/>
	<line class="st4" x1="257.9" y1="169.6" x2="257.9" y2="214.9"/>
	<line class="st4" x1="280" y1="159.7" x2="280" y2="209.4"/>
	<line class="st4" x1="302" y1="153.1" x2="302" y2="210.5"/>
	<line class="st4" x1="324.1" y1="159.7" x2="324.1" y2="209.4"/>
	<line class="st4" x1="346.2" y1="169.6" x2="346.2" y2="214.9"/>
	<g>
		<path class="st5" d="M340.1,453.3h-74V612c0,20.2,16.7,36.7,37,36.7c20.2,0,37-16.5,37-36.7V453.3z"/>
	</g>
	<rect x="254" y="342" class="st2" width="45" height="172.8"/>
</g>
<g>
	<path class="st1" d="M459.3,612c0,20.2,16.7,36.7,37,36.7c20.2,0,37-16.5,37-36.7V220.4h-74V612z"/>
	<path class="st2" d="M533.3,220.4V612c0,20.2-16.7,36.7-37,36.7c-20.2,0-37-16.5-37-36.7V220.4h-12.1V612
		c0,27.3,22.3,49.5,49.7,49.5c27.3,0,49.7-22.2,49.7-49.5V220.4H533.3z"/>
	<path class="st7" d="M563.8,225.7H429.3V152c0,0,35.5-13.6,67.3-13.6c35.3,0,67.3,13.6,67.3,13.6V225.7z"/>
	<line class="st4" x1="451" y1="169.6" x2="451" y2="214.9"/>
	<line class="st4" x1="473.1" y1="159.7" x2="473.1" y2="209.4"/>
	<line class="st4" x1="495.2" y1="153.1" x2="495.2" y2="210.5"/>
	<line class="st4" x1="517.3" y1="159.7" x2="517.3" y2="209.4"/>
	<line class="st4" x1="539.3" y1="169.6" x2="539.3" y2="214.9"/>
	<g>
		<path class="st5" d="M533.3,453.3h-74V612c0,20.2,16.7,36.7,37,36.7c20.2,0,37-16.5,37-36.7V453.3z"/>
	</g>
	<rect x="447.2" y="342" class="st2" width="45" height="172.8"/>
</g>
<g>
	<path class="st1" d="M652.5,612c0,20.2,16.7,36.7,37,36.7c20.2,0,37-16.5,37-36.7V220.4h-74V612z"/>
	<path class="st2" d="M726.4,220.4V612c0,20.2-16.7,36.7-37,36.7c-20.2,0-37-16.5-37-36.7V220.4h-12.1V612
		c0,27.3,22.3,49.5,49.7,49.5c27.3,0,49.7-22.2,49.7-49.5V220.4H726.4z"/>
	<path class="st8" d="M757,225.7H622.5V152c0,0,35.5-13.6,67.3-13.6c35.3,0,67.3,13.6,67.3,13.6V225.7z"/>
	<line class="st4" x1="644.2" y1="169.6" x2="644.2" y2="214.9"/>
	<line class="st4" x1="666.3" y1="159.7" x2="666.3" y2="209.4"/>
	<line class="st4" x1="688.4" y1="153.1" x2="688.4" y2="210.5"/>
	<line class="st4" x1="710.4" y1="159.7" x2="710.4" y2="209.4"/>
	<line class="st4" x1="732.5" y1="169.6" x2="732.5" y2="214.9"/>
	<g>
		<path class="st5" d="M726.4,453.3h-74V612c0,20.2,16.7,36.7,37,36.7c20.2,0,37-16.5,37-36.7V453.3z"/>
	</g>
	<rect x="640.3" y="342" class="st2" width="45" height="172.8"/>
</g>
</svg>
