<?xml version="1.0" encoding="utf-8"?>
<!-- Generator: Adobe Illustrator 22.1.0, SVG Export Plug-In . SVG Version: 6.00 Build 0)  -->
<svg version="1.1" id="Layer_1" xmlns="http://www.w3.org/2000/svg" xmlns:xlink="http://www.w3.org/1999/xlink" x="0px" y="0px"
	 viewBox="0 0 800 800" style="enable-background:new 0 0 800 800;" xml:space="preserve">
<style type="text/css">
	.st0{display:none;fill:#04B27C;}
	.st1{display:none;}
	.st2{display:inline;}
	.st3{fill:none;}
	.st4{fill:#FFFFFF;}
	.st5{fill:#1DABDA;stroke:#FFFFFF;stroke-width:15.4523;stroke-miterlimit:10;}
	.st6{fill:none;stroke:#FFFFFF;stroke-width:7.7261;stroke-miterlimit:10;}
	.st7{fill:#9E1313;}
	.st8{fill:#EFC470;stroke:#FFFFFF;stroke-width:15.4523;stroke-miterlimit:10;}
	.st9{fill:#7ECBC7;stroke:#FFFFFF;stroke-width:15.4523;stroke-miterlimit:10;}
	.st10{fill:#736898;stroke:#FFFFFF;stroke-width:15.4523;stroke-miterlimit:10;}
	.st11{fill:#C90D0D;}
</style>
<rect class="st0" width="800" height="800"/>
<g class="st1">
	<g class="st2">
		<path class="st3" d="M73,612c0,20.2,16.7,36.7,37,36.7c20.2,0,37-16.5,37-36.7V220.4H73V612z"/>
		<path class="st4" d="M147,220.4V612c0,20.2-16.7,36.7-37,36.7c-20.2,0-37-16.5-37-36.7V220.4H60.9V612c0,27.3,22.3,49.5,49.7,49.5
			c27.3,0,49.7-22.2,49.7-49.5V220.4H147z"/>
		<path class="st5" d="M177.5,225.7H43V152c0,0,35.5-13.6,67.3-13.6c35.3,0,67.3,13.6,67.3,13.6V225.7z"/>
		<line class="st6" x1="64.7" y1="169.6" x2="64.7" y2="214.9"/>
		<line class="st6" x1="86.8" y1="159.7" x2="86.8" y2="209.4"/>
		<line class="st6" x1="108.9" y1="153.1" x2="108.9" y2="210.5"/>
		<line class="st6" x1="131" y1="159.7" x2="131" y2="209.4"/>
		<line class="st6" x1="153" y1="169.6" x2="153" y2="214.9"/>
		<g>
			<path class="st7" d="M147,453.3H73V612c0,20.2,16.7,36.7,37,36.7c20.2,0,37-16.5,37-36.7V453.3z"/>
		</g>
		<rect x="60.9" y="342" class="st4" width="45" height="172.8"/>
	</g>
	<g class="st2">
		<path class="st3" d="M266.2,612c0,20.2,16.7,36.7,37,36.7c20.2,0,37-16.5,37-36.7V220.4h-74V612z"/>
		<path class="st4" d="M340.1,220.4V612c0,20.2-16.7,36.7-37,36.7c-20.2,0-37-16.5-37-36.7V220.4H254V612
			c0,27.3,22.3,49.5,49.7,49.5c27.3,0,49.7-22.2,49.7-49.5V220.4H340.1z"/>
		<path class="st8" d="M370.7,225.7H236.2V152c0,0,35.5-13.6,67.3-13.6c35.3,0,67.3,13.6,67.3,13.6V225.7z"/>
		<line class="st6" x1="257.9" y1="169.6" x2="257.9" y2="214.9"/>
		<line class="st6" x1="280" y1="159.7" x2="280" y2="209.4"/>
		<line class="st6" x1="302" y1="153.1" x2="302" y2="210.5"/>
		<line class="st6" x1="324.1" y1="159.7" x2="324.1" y2="209.4"/>
		<line class="st6" x1="346.2" y1="169.6" x2="346.2" y2="214.9"/>
		<g>
			<path class="st7" d="M340.1,453.3h-74V612c0,20.2,16.7,36.7,37,36.7c20.2,0,37-16.5,37-36.7V453.3z"/>
		</g>
		<rect x="254" y="342" class="st4" width="45" height="172.8"/>
	</g>
	<g class="st2">
		<path class="st3" d="M459.3,612c0,20.2,16.7,36.7,37,36.7c20.2,0,37-16.5,37-36.7V220.4h-74V612z"/>
		<path class="st4" d="M533.3,220.4V612c0,20.2-16.7,36.7-37,36.7c-20.2,0-37-16.5-37-36.7V220.4h-12.1V612
			c0,27.3,22.3,49.5,49.7,49.5c27.3,0,49.7-22.2,49.7-49.5V220.4H533.3z"/>
		<path class="st9" d="M563.8,225.7H429.3V152c0,0,35.5-13.6,67.3-13.6c35.3,0,67.3,13.6,67.3,13.6V225.7z"/>
		<line class="st6" x1="451" y1="169.6" x2="451" y2="214.9"/>
		<line class="st6" x1="473.1" y1="159.7" x2="473.1" y2="209.4"/>
		<line class="st6" x1="495.2" y1="153.1" x2="495.2" y2="210.5"/>
		<line class="st6" x1="517.3" y1="159.7" x2="517.3" y2="209.4"/>
		<line class="st6" x1="539.3" y1="169.6" x2="539.3" y2="214.9"/>
		<g>
			<path class="st7" d="M533.3,453.3h-74V612c0,20.2,16.7,36.7,37,36.7c20.2,0,37-16.5,37-36.7V453.3z"/>
		</g>
		<rect x="447.2" y="342" class="st4" width="45" height="172.8"/>
	</g>
	<g class="st2">
		<path class="st3" d="M652.5,612c0,20.2,16.7,36.7,37,36.7c20.2,0,37-16.5,37-36.7V220.4h-74V612z"/>
		<path class="st4" d="M726.4,220.4V612c0,20.2-16.7,36.7-37,36.7c-20.2,0-37-16.5-37-36.7V220.4h-12.1V612
			c0,27.3,22.3,49.5,49.7,49.5c27.3,0,49.7-22.2,49.7-49.5V220.4H726.4z"/>
		<path class="st10" d="M757,225.7H622.5V152c0,0,35.5-13.6,67.3-13.6c35.3,0,67.3,13.6,67.3,13.6V225.7z"/>
		<line class="st6" x1="644.2" y1="169.6" x2="644.2" y2="214.9"/>
		<line class="st6" x1="666.3" y1="159.7" x2="666.3" y2="209.4"/>
		<line class="st6" x1="688.4" y1="153.1" x2="688.4" y2="210.5"/>
		<line class="st6" x1="710.4" y1="159.7" x2="710.4" y2="209.4"/>
		<line class="st6" x1="732.5" y1="169.6" x2="732.5" y2="214.9"/>
		<g>
			<path class="st7" d="M726.4,453.3h-74V612c0,20.2,16.7,36.7,37,36.7c20.2,0,37-16.5,37-36.7V453.3z"/>
		</g>
		<rect x="640.3" y="342" class="st4" width="45" height="172.8"/>
	</g>
</g>
<path class="st11" d="M786.4,144.3c-8-1.3-16.1-2.1-24.1-2.6c-8-0.5-15.9-0.6-23.5-0.6c-7.6,0.1-15,0.3-22,0.6
	c-1.8,0.1-3.5,0.1-5.2,0.2c-1.8,0.1-3.5,0.2-5.2,0.3c-3.5,0.1-6.8,0.2-10,0.2c-4.2,0.5-2.4-1.5-0.5-4.1c1.8-2.5,3.7-5.5-0.9-6.8
	c-2.2,0.3-4.9,0.6-7.8,1c-1.5,0.2-3,0.4-4.6,0.7c-1.6,0.3-3.2,0.6-4.8,0.8c-6.4,1.1-12.9,2.2-17.2,3c-4.8-1.7-3.2-4.9-1.6-8
	c1.6-3.1,3.4-6.2-1.6-8c-2.5-0.9-6.5-0.8-11.2-0.3c-2.4,0.3-5,0.7-7.6,1.1c-1.3,0.2-2.7,0.5-4.1,0.7c-0.7,0.1-1.4,0.3-2.1,0.4
	l-2.1,0.5c-5.5,1.3-11,2.7-15.7,3.7c-2.4,0.5-4.5,0.9-6.4,1.1c-1.9,0.2-3.4,0.4-4.7,0.3c-13.5,2.3-9.6-0.4,1-4.6
	c5.4-2,12.5-4.1,19.9-6.3c1.9-0.5,3.7-1.1,5.6-1.6c1.9-0.5,3.8-0.9,5.6-1.4c3.7-0.9,7.3-1.7,10.7-2.4c-4.8-0.8-0.4-1.8,5.2-3
	c1.4-0.3,2.9-0.6,4.3-0.9c1.4-0.3,2.8-0.6,4-0.9c2.4-0.6,4-1.4,3.8-2.3c-0.6-3.6-1.3-7.2-6.5-9.7c-1.3-0.6-2.9-1.2-4.9-1.7
	c-2-0.4-4.3-0.7-7-0.9c-2.7-0.2-5.9-0.3-9.6-0.2c-1.8,0-3.8,0.1-5.9,0.2c-2.1,0.1-4.4,0.2-6.7,0.5c-9.6,0.6-1.8-7.1-2.6-10.6
	c-7,1.8-14,3.7-21.1,5.5c-3.6,0.9-7,2-10.5,3.1c-3.5,1.1-7,2.2-10.5,3.3l-5.3,1.6c-1.8,0.5-3.5,1.1-5.3,1.7c-3.5,1.2-7,2.5-10.5,3.7
	c-3.5,1.3-7,2.5-10.5,3.8l-2.6,0.9l-2.6,1l-5.2,2.1c-3.5,1.4-6.9,2.8-10.4,4.2l-5.2,2.1c-0.9,0.4-1.7,0.7-2.6,1.1l-2.6,1.2
	c-6.8,3.1-13.6,6.3-20.4,9.4c-13.4,6.8-26.8,13.6-39.8,21.3l-9.8,5.7l-9.5,6.1l-9.5,6.1c-1.6,1-3.2,2-4.7,3.1l-4.6,3.3
	c-6.1,4.4-12.3,8.7-18.3,13.1c-5.9,4.6-11.7,9.3-17.6,13.9c-16,13.2-31.1,27.3-45.2,42.1c-2.4-2.2-4.9-4.5-7.3-6.7
	c-16.8-15.2-34.1-30.2-51.9-43.9c-17.8-13.7-36.1-26.1-54.5-36.4c-11.1-6.2-25-16.3-39-24.3c-14-8.1-28.1-14.2-37.8-13.5
	c7.9,3.5,15.7,7.1,23.3,11c-12.7-3.4-24.3-8.7-36.1-13.9c-11.8-5.2-23.9-10.3-36.7-13.1c-0.5,1.7-0.9,3.1-2.2,3.8
	c-1.4,0.8-3.6,1-8,0.9c1,0.3,2.1,0.5,3.2,0.8c1.1,0.3,2.2,0.6,3.4,0.9c2.3,0.6,4.7,1.2,7.1,1.9c2.4,0.7,4.9,1.4,7.5,2.2
	c1.3,0.4,2.5,0.7,3.8,1.1c1.3,0.4,2.5,0.8,3.8,1.2c10.2,3.2,20,7.3,27.4,11.5l-2.2,5c-8-2.5-17.5-6.9-27.2-10.7
	c-1.2-0.5-2.4-1-3.6-1.5c-1.2-0.5-2.5-0.9-3.7-1.4c-2.4-0.9-4.8-1.7-7.2-2.5c-2.4-0.7-4.7-1.4-7-2c-1.1-0.3-2.2-0.6-3.3-0.8
	c-1.1-0.2-2.2-0.4-3.2-0.5c-0.5,1.8-1.4,5.3-1.8,7c-0.2,0.9-2.3,0.8-5.4,0.3c-1.5-0.3-3.3-0.6-5.2-1c-1.9-0.4-3.9-0.8-5.9-1.3
	c2,0.4,4.5,1,7.2,1.6c2.8,0.6,5.7,1.4,8.7,2.2c3,0.7,5.9,1.6,8.6,2.4c2.7,0.8,5.2,1.5,7.1,2.1c-0.5,1.7-1.6,5.2-2.2,6.9
	c-0.5,1.7-8.2-0.7-15.9-2.7c-1,3.5-9.4,5.1-2.3,8.8l2.8,0.7l2.8,0.8l5.6,1.6c3.7,1.1,7.4,2.4,11.1,3.5c-3.8-1-7.3-1.8-10.7-2.4
	c-3.4-0.5-6.5-0.9-9.5-1.1c-3-0.1-5.7-0.1-8.2,0c-2.5,0.1-4.8,0.4-6.8,0.8c-2,0.4-3.8,0.8-5.4,1.3c-1.5,0.5-2.9,1.2-3.9,1.8
	c-2.1,1.3-3.3,2.7-3.6,4c7.6-0.5,6.5,5,13.9,4.8c-11.3,0.1-22.4,1.6-27.1,3.6c-0.6,0.3-1.1,0.5-1.5,0.8c-0.4,0.3-0.7,0.5-0.9,0.8
	c-0.3,0.6-0.1,1.2,0.7,1.8c0.7,0.6,2,1.3,4,2c2,0.7,4.6,1.4,7.9,2.3l5.6,1.2l5.5,1.4c3.7,0.8,7.3,2,11,3c1.8,0.5,3.7,1.1,5.5,1.7
	c1.8,0.6,3.7,1.1,5.5,1.7c3.6,1.3,7.3,2.4,10.9,3.8c7.3,2.6,14.4,5.7,21.6,8.8c7.1,3.3,14.3,6.6,21.3,10.4c7.1,3.6,14,7.6,21,11.6
	c3.5,2.1,6.9,4.1,10.4,6.3l5.2,3.2l5.1,3.3c13.7,8.9,27.1,18.6,40.5,28.7c13.3,10.1,26.4,20.9,39.5,31.9
	c8.6,7.3,17.2,14.8,25.7,22.4c-4,5-7.9,10.1-11.8,15.3c-1,1.3-1.9,2.6-2.9,3.8c-0.9,1.3-1.9,2.6-2.8,3.9c-1.9,2.6-3.8,5.2-5.7,7.8
	c-3.7,5.3-7.5,10.6-11.1,16.1c-3.7,5.4-7.2,10.9-10.8,16.4c-1.8,2.8-3.5,5.6-5.2,8.4l-2.6,4.2c-0.9,1.4-1.7,2.8-2.5,4.3l-5,8.5
	c-1.6,2.9-3.2,5.8-4.8,8.6c-1.6,2.9-3.1,5.8-4.6,8.7c-1.5,2.9-3.1,5.8-4.5,8.8c-1.4,2.9-2.9,5.9-4.3,8.8c-1.4,2.9-2.7,5.9-4.1,8.9
	c-2.7,5.9-5.2,11.9-7.6,17.9c-1.2,3-2.3,6-3.5,9c-0.6,1.5-1.1,3-1.7,4.5c-0.5,1.5-1.1,3-1.6,4.5c-1,3-2,6-3.1,9c-0.9,3-1.8,6-2.8,9
	c-0.4,1.5-0.9,3-1.3,4.5c-0.4,1.5-0.8,3-1.2,4.5c-0.8,3-1.6,6-2.3,8.9c-0.7,3-1.3,6-2,8.9c-0.3,1.5-0.6,2.9-1,4.4
	c-0.3,1.5-0.6,3-0.8,4.4c-0.6,3.6-1.6,7.4-2.5,11.4c-0.9,4-1.9,8.2-3,12.6c-1,4.3-2,8.8-3,13.3c-0.9,4.5-1.8,9-2.6,13.5
	c-0.7,4.5-1.3,8.9-1.8,13.2c-0.4,4.3-0.6,8.4-0.7,12.3c-0.1,3.9,0.3,7.5,0.7,10.8c0.2,1.6,0.5,3.2,0.9,4.6c0.4,1.4,0.8,2.8,1.4,4
	l0.1-3.6l0.2-3.6l0.5-7.2c0.1-2.4,0.4-4.8,0.6-7.2l0.7-7.2c0.3,3.7,0.5,7.3,0.5,10.9c0.1,3.6,0.1,7.2,0,10.8
	c-0.1,3.6-0.2,7.2-0.3,10.8c-0.1,3.6-0.4,7.2-0.4,10.8c-0.1,3.6-0.3,7.2-0.4,10.8c0,3.6,0,7.2,0,10.9c0.1,7.1,0.6,14.1,1.6,21.1
	c3.6-0.3,5.4-0.4,8,8.7c-0.5-4.6-1-9.8-1.5-15.3c-0.2-2.7-0.5-5.6-0.8-8.4c-0.1-1.4-0.2-2.9-0.3-4.3c-0.1-1.5-0.2-3-0.2-4.4
	c-0.2-3-0.3-5.9-0.4-8.9c-0.1-2.9,0-5.8,0-8.6c0-5.6,0.5-11,1.1-15.7l5.4,0.2c0.3,4.7,0.2,9.9,0.2,15.5c0,2.8-0.1,5.6-0.2,8.5
	c0,2.9,0,5.8,0,8.7c0,1.5,0,2.9,0,4.4c0,1.4,0,2.9,0.1,4.3c0.1,2.8,0.2,5.6,0.3,8.4c0.3,5.5,0.9,10.6,1.7,15.2
	c1.8-0.2,5.4-0.5,7.2-0.7c1.8-0.2,2.6,8.9,3.7,17.9c-0.5-4.5-1.3-11.3-1.9-18c-0.6-6.8-1.1-13.6-1.4-18.1c1.8-0.1,5.4-0.3,7.2-0.5
	c1.8-0.1,2.4,8.8,3.2,17.7c3.6-0.3,8.1,8.1,9-0.8c-0.8-8.8-1.4-17.6-1.9-26.4c1.8,17.6,5.9,30.5,10,38.8c4.2,8.3,8.4,12.1,11.1,11.7
	c-2.9-8.3,2.5-9-0.3-17.2c4.1,12.5,9.1,24.6,12.6,29.4c0.9,1.2,1.7,2,2.3,2.2c0.6,0.2,1.2-0.2,1.5-1.3c0.7-2.1,0.7-6.9,0-15.2
	c-1.1-9.1-1.9-18.2-2.6-27.3c-0.3-4.6-0.6-9.1-0.8-13.7c-0.2-4.5-0.4-9.3-0.5-13.5c-0.4-17.4,0.5-34.9,2.6-52.4
	c4.3-35,13.3-69.9,26.2-103.7c6.5-16.9,13.9-33.5,22.2-49.7c8.3-16.3,17.5-32.1,27.5-47.5c8.9-13.6,18.3-26.9,28.3-39.8
	c9.9,9.4,19.7,18.9,29.4,28.5c12.3,12.2,24.2,24.6,36,37.1c11.7,12.5,23.1,25.3,34,38.3c11,13,21.6,26.2,31.7,39.7
	c10.1,13.5,19.8,27.2,28.8,41.3c9,14.1,17.5,28.4,25.5,43c7.8,14.6,15,29.5,21.6,44.6l4.8,11.4l4.4,11.5l1.1,2.9l1,2.9l2,5.8l2,5.8
	c0.6,1.9,1.2,3.9,1.8,5.8l1.8,5.8c0.6,1.9,1.2,3.9,1.8,5.8l3.3,11.7c1.9,7.9,3.9,15.7,5.4,23.6c1.1,3.5,2.1,5.7,3,7
	c0.9,1.4,1.7,1.7,2.5,1.6c1.6-0.3,3-2.6,4.8-2.9c-0.7-3.7-1.4-7.4-2.2-11.1c-0.4-1.8-0.7-3.7-1.2-5.5c-0.4-1.8-0.9-3.6-1.3-5.4
	c-0.4-1.8-0.9-3.6-1.3-5.4c-0.4-1.8-0.8-3.6-1.3-5.3c-1-3.5-1.9-7-2.8-10.4c-0.2-0.9-0.4-1.7-0.7-2.6c-0.2-0.8-0.5-1.7-0.7-2.5
	c-0.5-1.7-0.9-3.3-1.4-5c-0.4-1.6-0.9-3.3-1.3-4.9c-0.4-1.6-0.8-3.2-1.3-4.8c-0.9-3.1-1.7-6.2-2.3-9.2c-0.3-1.5-0.7-3-1-4.5
	c-0.3-1.5-0.6-2.9-0.9-4.3c-1.3-3.6,1-2.4,3.8-1.4c2.8,1,6,2,6.4-2.3c-0.7-1.8-1.5-4.1-2.4-6.6c-0.5-1.3-0.9-2.6-1.4-3.9
	c-0.5-1.3-1.1-2.7-1.6-4c-1.1-2.7-2.2-5.4-3.2-7.9c-0.5-1.2-1-2.4-1.4-3.5c-0.5-1.1-0.9-2.1-1.3-3c0.9-4.6,4.2-3.9,7.5-3.2
	c3.3,0.7,6.6,1.5,7.5-3.2c0.5-2.4-0.2-5.9-1.5-10c-0.3-1-0.7-2.1-1.1-3.2c-0.4-1.1-0.8-2.2-1.3-3.3c-0.9-2.2-1.9-4.6-3-6.9
	c-1-2.3-2-4.6-3.1-6.8c-1-2.2-2-4.3-2.9-6.3c-1.7-3.9-2.9-7.3-3-9.5c-4.1-11.6-1-8.7,4.6-0.1c1.3,2.2,2.8,4.7,4.4,7.4
	c0.8,1.4,1.6,2.8,2.4,4.3c0.8,1.5,1.6,3,2.4,4.5c1.6,3.1,3.1,6.2,4.6,9.3c0.7,1.5,1.5,3,2.2,4.5c0.7,1.5,1.3,3,1.9,4.4
	c0-9,6.6,15,9.8,13.7c3.4-1.4,6.7-2.7,8.3-7.9c0.8-2.6,1-6.1,0.6-11.1c-0.2-2.5-0.6-5.3-1.3-8.6c-0.7-3.2-1.6-6.9-2.8-11
	c-2-8.5,6.6-3.1,9.8-4.7c-11.1-23.4-23.7-46.5-37.6-68.9c-14-22.4-29.4-44.1-45.7-64.8c-16.3-20.7-33.6-40.5-51.4-59.1
	c-17.9-18.6-36.3-36-55-52.3c-9.1-8-18.4-16.4-27.7-25c21.8-20.6,45.5-39.4,70.5-56.2c30.7-20.5,63.6-37.9,97.8-52.1
	c8.5-3.8,17.2-6.8,25.9-10l3.2-1.2c1.1-0.4,2.2-0.8,3.3-1.1l6.6-2.1l13.2-4.3c1.1-0.4,2.2-0.7,3.3-1l3.3-0.9l6.7-1.9l6.7-1.9
	c2.2-0.6,4.4-1.3,6.7-1.8l13.5-3.1l6.7-1.6c2.3-0.5,4.5-0.9,6.8-1.3l13.6-2.5l3.4-0.6l3.4-0.5l6.8-1c4.5-0.6,9.1-1.3,13.6-1.9
	c4.3-0.5,8.6-0.9,12.9-1.2c17.2-1.2,34.5-0.8,51.6,1.2c4,0.1,6.5-0.1,8-0.5c1.8-0.4,2.4-1,2.6-1.8
	C788,148.3,786.1,146.1,786.4,144.3z"/>
</svg>
