<?xml version="1.0" encoding="utf-8"?>
<!-- Generator: Adobe Illustrator 22.1.0, SVG Export Plug-In . SVG Version: 6.00 Build 0)  -->
<svg version="1.1" id="Layer_1" xmlns="http://www.w3.org/2000/svg" xmlns:xlink="http://www.w3.org/1999/xlink" x="0px" y="0px"
	 viewBox="0 0 128 128" style="enable-background:new 0 0 128 128;" xml:space="preserve">
<style type="text/css">
	.st0{fill:#FFFFFF;}
</style>
<g>
	<path class="st0" d="M64,86.1c18.1,0,36.2,0,54.3,0c1.5,0,1.5,0,1.5,1.5c0,3.4,0,6.8,0,10.2c0,4.2-3.2,7.3-7.4,7.3
		c-32.2,0-64.4,0-96.5,0c-4.3,0-7.6-3.3-7.6-7.6c0-3.4,0-6.8,0-10.1c0-1.1,0.3-1.4,1.4-1.4C27.8,86.1,45.9,86.1,64,86.1z"/>
	<path class="st0" d="M64.1,81.9c-19.4,0-38.8,0-58.1,0c-2.6,0-3.6-1-3.6-3.6c0-2.8,0-5.6,0-8.4c0-2.6,1.1-3.7,3.6-3.7
		c38.7,0,77.4,0.1,116,0.1c2.5,0,3.5,1,3.5,3.4c0,3,0,6,0,9.1c0,2.1-1,3.1-3.1,3.1C103,81.9,83.6,81.9,64.1,81.9z"/>
	<path class="st0" d="M119.7,61.2c-0.1-2.9-0.8-5.7-1.9-8.4c-3.2-7.9-8.7-13.8-15.6-18.6C90.3,26.1,77,22.4,62.6,22.8
		c-3.8,0.1-7.6,0.4-11.3,1.1c-11.6,2-22.1,6.6-30.9,14.6c-6.6,6-11.4,13.2-12,22.5c-0.1,1.4-0.2,1.4,1.3,1.4c36.2,0,72.4,0,108.6,0
		c0.4,0,0.9,0,1.5,0C119.7,62,119.7,61.6,119.7,61.2z M18.5,56.7c-0.5-0.1-1.4-0.3-2.2-0.5c-0.7-0.2-0.9-0.8-0.2-1.2
		c0.9-0.5,1.9-1,2.9-1.3c0.8-0.2,1.6,0.6,1.6,1.4C20.7,56.1,19.9,56.7,18.5,56.7z M22.7,46c-0.8-0.2-1.6-0.4-2.3-0.7
		c-0.8-0.3-1.1-1.3-0.7-2.1c0.4-0.7,1.1-0.9,1.9-0.3c0.6,0.5,1.2,1,1.7,1.6c0.2,0.3,0.3,0.7,0.4,1C23.5,45.8,23.1,45.9,22.7,46z
		 M35.1,55.9c-1-1.5-1.3-2.9-1.2-4.4c0-0.8,0.6-1.4,1.5-1.3c0.9,0.1,1.3,0.7,1.2,1.5C36.6,53.2,36.2,54.6,35.1,55.9z M38,40.8
		c-0.4,0.2-1.1,0-1.5-0.3c-0.8-0.7-0.9-3.3-0.3-4.5c1.2,0.9,2.2,2,2.6,3.4C38.8,39.8,38.3,40.6,38,40.8z M49.1,41.6
		c-0.3,0.6-0.8,0.5-1-0.1c-0.2-1.2-0.4-2.4-0.5-3.6c0-0.7,0.6-1.2,1.4-1.1c0.9,0.1,1.2,0.8,1.2,2.1C50,39.6,49.6,40.6,49.1,41.6z
		 M51.4,31.4c-0.3,0.2-1.2,0.1-1.4-0.2c-0.9-1.2-1.3-2.5-1-4.3c1.5,0.8,2.5,1.7,2.9,3C52.1,30.4,51.8,31.1,51.4,31.4z M55.3,58.5
		c-0.6,0.2-1.4,0.2-1.6-0.7c-0.3-1.4-0.4-2.9,0.4-4.5c1.3,1.2,1.9,2.5,2.1,3.9C56.2,57.6,55.7,58.4,55.3,58.5z M63.9,46.1
		c-0.9,0.5-1.8,0.9-2.7,1.2c-0.7,0.2-1.2-0.2-0.8-0.8c0.6-1,1.4-2,2.2-2.9c0.2-0.2,0.9-0.2,1.2-0.1c0.4,0.2,0.6,0.8,1,1.3
		C64.5,45.3,64.3,45.9,63.9,46.1z M64.7,31.7c-0.2,0.3-0.9,0.6-1.3,0.5c-0.3-0.1-0.7-0.5-0.9-0.9c-0.3-0.8,0.8-3.4,1.6-3.8
		c0.2-0.1,0.7,0.1,0.7,0.3c0.2,0.6,0.2,1.3,0.3,2.1C65.1,30.4,65.1,31.2,64.7,31.7z M83.2,32.7c1.2,1,2,2.2,2.3,3.6
		c0.1,0.4-0.4,1.2-0.8,1.5c-0.3,0.2-1.1,0-1.4-0.2C82.4,36.9,82.3,33.8,83.2,32.7z M70.7,42.6c-0.2,0-0.5-0.4-0.5-0.6
		c-0.2-0.9-0.4-1.9-0.5-2.6c0-0.5,0-0.7,0.1-0.9c0.2-0.9,0.9-1.5,1.6-1.4c0.7,0.1,1.4,1.1,1.2,2c-0.3,1.1-0.8,2.1-1.2,3.1
		C71.2,42.3,70.9,42.6,70.7,42.6z M75.4,53.8c-0.4,0.7-1.2,0.8-2,0.2c-0.7-0.5-1.3-1.2-1.8-1.8c-0.2-0.2-0.3-0.6-0.2-0.8
		c0.1-0.2,0.5-0.3,0.8-0.5c0.9,0.3,1.8,0.4,2.6,0.8C75.6,52.1,75.8,53.1,75.4,53.8z M85.8,46.6c-0.9,0.5-1.9,1-2.9,1.3
		c-0.6,0.2-0.9-0.2-0.6-0.8c0.5-0.9,1.1-1.9,1.9-2.7c0.3-0.3,1-0.4,1.4-0.2c0.4,0.2,0.6,0.7,0.9,1.2C86.2,45.9,86.1,46.4,85.8,46.6z
		 M97.4,55.5c-0.3,0.7-0.9,1.1-1.6,0.8c-0.9-0.4-1.1-1.2-0.7-1.9c0.6-0.9,1.4-1.8,2.3-2.5c0.7-0.6,0.9,0.1,1,0.8
		C98,53.6,97.8,54.6,97.4,55.5z M100,44c-0.8-0.6-1.6-1.3-2.2-2c-0.6-0.7-0.4-1.7,0.4-2.1c0.7-0.4,1.5-0.1,1.9,0.8
		c0.4,0.9,0.7,1.8,1,2.7C101,44.1,100.7,44.4,100,44z M114.6,55c-0.3,0.7-0.9,0.9-1.6,0.8c-0.9-0.2-2.5-1.6-2.9-2.6
		c1-0.6,3.3-0.5,4,0.2C114.6,53.8,114.9,54.3,114.6,55z"/>
</g>
</svg>
