<?xml version="1.0" encoding="utf-8"?>
<!-- Generator: Adobe Illustrator 22.1.0, SVG Export Plug-In . SVG Version: 6.00 Build 0)  -->
<svg version="1.1" id="Layer_1" xmlns="http://www.w3.org/2000/svg" xmlns:xlink="http://www.w3.org/1999/xlink" x="0px" y="0px"
	 viewBox="0 0 800 800" style="enable-background:new 0 0 800 800;" xml:space="preserve">
<style type="text/css">
	.st0{fill:#9E1313;}
	.st1{fill:#FFFFFF;}
	.st2{fill:#04B27C;}
	.st3{fill:#610013;}
	.st4{fill:#4F0010;}
</style>
<g>
	
		<rect x="327.2" y="309.1" transform="matrix(0.7244 0.6894 -0.6894 0.7244 349.9859 -147.8522)" class="st0" width="65.4" height="109.4"/>
	<path class="st1" d="M366.3,285.4L172.5,488.9l67.4,64.1l193.7-203.6L366.3,285.4z M239.3,526.2l-40.6-38.6l168.2-176.8l40.6,38.6
		L239.3,526.2z"/>
	<path class="st1" d="M256.8,577.3L147.4,473.3c-2.4-2.3-2.5-6.1-0.2-8.5l14.1-14.8c2.3-2.4,6.1-2.5,8.5-0.2l109.3,104.1
		c2.4,2.3,2.5,6.1,0.2,8.5l-14.1,14.8C263,579.5,259.2,579.6,256.8,577.3z"/>
	
		<rect x="227.7" y="366.9" transform="matrix(0.7244 0.6894 -0.6894 0.7244 403.6205 -25.5228)" class="st1" width="12.2" height="250.3"/>
	<path class="st1" d="M198.4,624.7c-2.5-10.7-18.3-31.8-40.5-52.9s-44.1-35.9-54.8-37.8c-1.3,2.6-3.2,4.5-4.6,7.1l93.1,88.5
		C194,628.1,195.9,626.1,198.4,624.7z"/>
	<path class="st1" d="M417,342.6l-43.1-41c-2.4-2.3-2.5-6.1-0.2-8.5l5.1-5.4c2.3-2.4,6.1-2.5,8.5-0.2l43.1,41
		c2.4,2.3,2.5,6.1,0.2,8.5l-5.1,5.4C423.2,344.8,419.4,344.9,417,342.6z"/>
	<path class="st1" d="M398.7,331.9l-13.1-12.5c-2.4-2.3-2.5-6.1-0.2-8.5l25.3-26.5c2.3-2.4,6.1-2.5,8.5-0.2l13.1,12.5
		c2.4,2.3,2.5,6.1,0.2,8.5l-25.3,26.5C404.9,334,401.1,334.1,398.7,331.9z"/>
	<polygon class="st1" points="504.2,212.1 508,208 500,208.1 416.2,296.2 420.3,300.1 	"/>
	<path class="st2" d="M505.6,209.5c-1.5,1.2-3.9,1-5.5,0.3c-0.2-0.1-0.4-0.2-0.4-0.4c0-0.1,0.2-0.2,0.3-0.3c0.1,0,0.3,0,0.4,0
		c1.5,0.2,2.5,0.1,4,0.1C504.9,209.3,505.9,209.3,505.6,209.5z"/>
	<path class="st1" d="M346.7,440.2l-66.9-63.7l9.6-10.1c0,0,29.7,19,38.2,27.1c8.4,8,28.7,36.6,28.7,36.6L346.7,440.2z"/>
	
		<rect x="357.4" y="320.7" transform="matrix(0.7244 0.6894 -0.6894 0.7244 323.0531 -163.6283)" class="st1" width="17.6" height="3.1"/>
	
		<rect x="352" y="326.4" transform="matrix(0.7244 0.6894 -0.6894 0.7244 325.4672 -158.3627)" class="st1" width="17.6" height="3.1"/>
	
		<rect x="346.6" y="332" transform="matrix(0.7244 0.6894 -0.6894 0.7244 327.8814 -153.097)" class="st1" width="17.6" height="3.1"/>
	
		<rect x="341.2" y="337.7" transform="matrix(0.7244 0.6894 -0.6894 0.7244 330.2956 -147.8313)" class="st1" width="17.6" height="3.1"/>
	
		<rect x="334.9" y="345.7" transform="matrix(0.7244 0.6894 -0.6894 0.7244 335.0894 -143.6566)" class="st1" width="24.7" height="3.1"/>
	
		<rect x="330.5" y="349" transform="matrix(0.7244 0.6894 -0.6894 0.7244 335.1239 -137.3)" class="st1" width="17.6" height="3.1"/>
	
		<rect x="325.1" y="354.6" transform="matrix(0.7244 0.6894 -0.6894 0.7244 337.5381 -132.0343)" class="st1" width="17.6" height="3.1"/>
	
		<rect x="319.7" y="360.3" transform="matrix(0.7244 0.6894 -0.6894 0.7244 339.9522 -126.7686)" class="st1" width="17.6" height="3.1"/>
	
		<rect x="314.3" y="365.9" transform="matrix(0.7244 0.6894 -0.6894 0.7244 342.3664 -121.5029)" class="st1" width="17.6" height="3.1"/>
	
		<rect x="308" y="374" transform="matrix(0.7244 0.6894 -0.6894 0.7244 347.1602 -117.3282)" class="st1" width="24.7" height="3.1"/>
	
		<rect x="303.6" y="377.2" transform="matrix(0.7244 0.6894 -0.6894 0.7244 347.1947 -110.9716)" class="st1" width="17.6" height="3.1"/>
	
		<rect x="298.2" y="382.9" transform="matrix(0.7244 0.6894 -0.6894 0.7244 349.6089 -105.7059)" class="st1" width="17.6" height="3.1"/>
	
		<rect x="292.8" y="388.5" transform="matrix(0.7244 0.6894 -0.6894 0.7244 352.0231 -100.4402)" class="st1" width="17.6" height="3.1"/>
	
		<rect x="287.4" y="394.2" transform="matrix(0.7244 0.6894 -0.6894 0.7244 354.4373 -95.1745)" class="st1" width="17.6" height="3.1"/>
	
		<rect x="281.1" y="402.3" transform="matrix(0.7244 0.6894 -0.6894 0.7244 359.231 -90.9998)" class="st1" width="24.7" height="3.1"/>
	
		<rect x="276.7" y="405.5" transform="matrix(0.7244 0.6894 -0.6894 0.7244 359.2656 -84.6432)" class="st1" width="17.6" height="3.1"/>
	
		<rect x="271.3" y="411.1" transform="matrix(0.7244 0.6894 -0.6894 0.7244 361.6797 -79.3775)" class="st1" width="17.6" height="3.1"/>
	
		<rect x="265.9" y="416.8" transform="matrix(0.7244 0.6894 -0.6894 0.7244 364.0939 -74.1118)" class="st1" width="17.6" height="3.1"/>
	
		<rect x="260.5" y="422.5" transform="matrix(0.7244 0.6894 -0.6894 0.7244 366.5081 -68.8461)" class="st1" width="17.6" height="3.1"/>
	
		<rect x="254.2" y="430.5" transform="matrix(0.7244 0.6894 -0.6894 0.7244 371.3019 -64.6714)" class="st1" width="24.7" height="3.1"/>
	
		<rect x="249.8" y="433.8" transform="matrix(0.7244 0.6894 -0.6894 0.7244 371.3364 -58.3148)" class="st1" width="17.6" height="3.1"/>
	
		<rect x="244.4" y="439.4" transform="matrix(0.7244 0.6894 -0.6894 0.7244 373.7506 -53.0491)" class="st1" width="17.6" height="3.1"/>
	
		<rect x="239" y="445.1" transform="matrix(0.7244 0.6894 -0.6894 0.7244 376.1648 -47.7834)" class="st1" width="17.6" height="3.1"/>
	
		<rect x="233.6" y="450.7" transform="matrix(0.7244 0.6894 -0.6894 0.7244 378.5789 -42.5177)" class="st1" width="17.6" height="3.1"/>
	
		<rect x="227.3" y="458.8" transform="matrix(0.7244 0.6894 -0.6894 0.7244 383.3727 -38.3431)" class="st1" width="24.7" height="3.1"/>
	
		<rect x="222.9" y="462" transform="matrix(0.7244 0.6894 -0.6894 0.7244 383.4073 -31.9864)" class="st1" width="17.6" height="3.1"/>
	
		<rect x="217.5" y="467.7" transform="matrix(0.7244 0.6894 -0.6894 0.7244 385.8214 -26.7207)" class="st1" width="17.6" height="3.1"/>
	
		<rect x="212.1" y="473.3" transform="matrix(0.7244 0.6894 -0.6894 0.7244 388.2356 -21.455)" class="st1" width="17.6" height="3.1"/>
	
		<rect x="206.8" y="479" transform="matrix(0.7244 0.6894 -0.6894 0.7244 390.6497 -16.1893)" class="st1" width="17.6" height="3.1"/>
	
		<rect x="200.4" y="487.1" transform="matrix(0.7244 0.6894 -0.6894 0.7244 395.4435 -12.0147)" class="st1" width="24.7" height="3.1"/>
</g>
<path class="st3" d="M642,691.8c-5.2-26.5,1.1-54.7-2.8-81.6c-1.8-12.7-6.3-23.3-4.6-36.6c2.2-17.3,5.1-30.7,3.8-48.5
	c-1.8-24.9-3-48.5,0.4-73.1c2.1-15-0.6-25.4-3.3-39.8c-3-15.9-0.6-32.7,0-48.8c2-52.9-4.5-109.6,3.1-161.7c4-27.1-2.3-51.2-1.6-78.7
	c0.3-12.9,4.5-23.6,6.2-35.6c0.7-4.7,3.4-17.8-0.3-22.4c-6.7-8.5-48.6-6.7-60-7.3c-24-1.3-48.1-0.6-71.9,2.4
	c-26.4,3.3-28.6,3.5-26.6,27.9c4.4,53.5,2.7,107.8,1.2,161.3c-0.7,25.9,5.3,51.8,4.6,77.6c-0.8,30.1-3.4,57.9-1.7,88.6
	c1.3,24.6,5.5,48.5,5.8,73.1c0.4,28.6-2.6,56.5-2.2,85.1c0.2,16.1-5.1,29.8-5.7,45.6c-0.5,14.7,1.7,30.8,2.8,45.6
	c1.1,15.2-0.9,29.3-0.9,43.9c0,13.7,4.5,21.8,19.8,24c11.7,1.7,28.3-3.3,40.6-3.6c15.1-0.4,28.9,1,43.8,2.4
	C626.7,734.6,650.1,733.2,642,691.8z"/>
<g>
	<path class="st4" d="M488.1,394c0,7,0.2,14.2,0.6,21.5c0.7,12.8,2.2,25.4,3.4,38c26-44.2,55.9-99.2,73.4-145
		C543,338.5,517.2,367.2,488.1,394z"/>
	<path class="st4" d="M565.4,308.5c16.4,40.6,46.9,100.8,73.2,145.2c0.1-0.6,0.1-1.1,0.2-1.7c2.1-15-0.6-25.4-3.3-39.8
		c-1.7-9.3-1.6-18.9-1.1-28.5C608.7,360,585.7,334.8,565.4,308.5z"/>
</g>
</svg>
