<?xml version="1.0" encoding="utf-8"?>
<!-- Generator: Adobe Illustrator 22.1.0, SVG Export Plug-In . SVG Version: 6.00 Build 0)  -->
<svg version="1.1" id="Layer_1" xmlns="http://www.w3.org/2000/svg" xmlns:xlink="http://www.w3.org/1999/xlink" x="0px" y="0px"
	 viewBox="0 0 128 128" style="enable-background:new 0 0 128 128;" xml:space="preserve">
<style type="text/css">
	.st0{fill:#FFFFFF;}
	.st1{fill:#9E1313;}
</style>
<path class="st0" d="M53.6,106.7c-7.9,1.4-17.4,1-25.4,0.3c-6.2-0.6-11.9-3.1-16.3-7.5c-11.2-11-11.2-33.2-0.3-44.3
	c6.1-6.2,13.1-11.6,19.6-17.2c3.5-3,6.9-6,10.4-9c3-2.6,6.2-6.4,10-7.7c5.6-1.9,11.4,2.2,11.6,8.1c0.2,7.6-10.5,13.4-15.6,17.8
	C63,46.4,78.7,47,94.3,47.1c5.8,0,16.4-2.1,21.2,1.6c5,3.8,3.1,11.5-2.6,13.1c-6.3,1.8-14.9,0.4-21.5,0.3c-8.6-0.1-17.2,0-25.8,0
	c-6.1,0-17.6-2.6-21.9,2.9c-4.6,5.7-0.1,12.3,6.2,13.5c-5.6,4.9-3.3,13.2,3.9,14.9C48.9,97.2,49.7,102.6,53.6,106.7z"/>
<path class="st1" d="M113.6,65.7c3.7,6.5,9.2,13.9,10.4,21.5c1,6.2-4.1,12.2-10.4,12c-6.4-0.2-11.3-5.8-10.4-12.1
	C104.3,79.7,109.9,72,113.6,65.7z"/>
<path class="st0" d="M70.7,76.8c-5.8,0-11.6,0-17.4,0c-4.3,0-9.2-0.7-9.8-5.9c-0.8-6.4,5.4-7.5,10.2-7.5c6.4,0,12.9,0,19.3,0
	c6.4,0,26.3-3.7,25.1,7.4c-0.5,4.8-4.7,6-8.9,6C83,76.9,76.8,76.8,70.7,76.8z"/>
<path class="st0" d="M70.8,78.3c6.1,0,22.8-3.3,22.8,6.7c0,10-16.5,6.7-22.6,6.7c-6,0-21.1,3.1-22.8-5.4
	C45.9,75.1,64.8,78.3,70.8,78.3z"/>
<path class="st0" d="M70.6,93.3c5.7,0,17.4-2.5,18.7,5.7c1.5,9.8-11.9,7.8-17.6,7.8c-5.9,0-19.9,2.7-20-6.7
	C51.6,90.8,65,93.3,70.6,93.3z"/>
</svg>
