<?xml version="1.0" encoding="utf-8"?>
<!-- Generator: Adobe Illustrator 22.1.0, SVG Export Plug-In . SVG Version: 6.00 Build 0)  -->
<svg version="1.1" id="Layer_1" xmlns="http://www.w3.org/2000/svg" xmlns:xlink="http://www.w3.org/1999/xlink" x="0px" y="0px"
	 viewBox="0 0 128 128" style="enable-background:new 0 0 128 128;" xml:space="preserve">
<style type="text/css">
	.st0{fill:#FFFFFF;}
	.st1{fill:none;}
	.st2{fill:#D8D821;}
</style>
<g>
	<path class="st0" d="M79.4,62.2c-3.2,0-6.3,0-9.4,0c-3.3,0-3.9,0.6-5.2-2.2c-2.4-5-3.6-11.8-3.4-17.3c0.4-9.9,8.1-16.7,18.1-16.8
		c11.4-0.2,18.6,8.7,18.1,19.6c-0.2,2.8-0.7,5.6-1.4,8.2c-0.5,2-1,6-2.4,7.6C92.6,62.5,79.4,62.3,79.4,62.2z"/>
	<path class="st0" d="M57.8,81.2c2.4,0.5,4.2,2,6.6,2.9c2.5,1,5,1.5,7.7,1.9c5.7,0.7,12,0.8,17.7-0.5c2.6-0.6,5.1-1.5,7.6-2.7
		c1.3-0.6,2.9-2.3,3.6-0.6c0.6,1.3-2,5.6-2.6,6.6c-1.5,2.4-3.4,4.2-5.5,6.2c-2.5,2.2-2.4,2.7-3,5.7c-0.4,2.1-1.5,3.2-3.4,4.2
		c-4.6,2.6-11.4,2.7-15.5-1.1c-2.3-2.1-0.9-3.6-2-6c-0.8-1.8-3.3-3.1-4.7-4.4C61,90,58.5,85.7,57.8,81.2z"/>
	<path class="st0" d="M79.6,64.6c4.1,0,11.6-1.3,14.8,1.1c2.4,1.9,7.7,7.2,7,10.4c-1.8,8-18.6,8.1-24.5,7.9
		c-4.9-0.2-23.3-1.9-19-10.9c1.1-2.3,5.5-7.5,7.9-8.4C66.7,64.2,79.6,64.6,79.6,64.6z M79.8,79c3.4,0.1,12.5-0.5,13.5-4.7
		c1.1-4.9-10.1-5.8-12.9-5.9c-3.2-0.1-13.8,0.2-14.7,4.7C64.4,78.5,76.8,79,79.8,79z"/>
</g>
<g>
	<path class="st0" d="M0.9,66.2c-0.4-14.2,11.9-26,26-26c14,0,25.7,11.7,25.9,25.7C53,79.8,41.8,91.6,28.1,92.2
		C13.5,93,0.5,80.9,0.9,66.2z M15,87.1c1.6,0.9,7.7,4.1,9.6,3c1.3-0.7-0.2-5,1.6-4.8c1.4,0.2,0.2,4,1.6,4.8c1.8,1.1,7.9-1.6,9.4-2.4
		c-0.4-0.9-2.2-3.3-1.9-4.2c0.5-2.2,2.7,2,2.7,1.9c1.6,1.6,1.7,0.9,3.6-0.8c1.9-1.6,3.5-3.1,4.9-5c-0.7-0.5-3.7-1.9-3.7-2.8
		c0-2.2,4,0.9,4.7,1.3c0.9-1.6,4.1-7.7,3-9.4c-0.5-1-5.3-0.7-4.5-1.9c0.6-1,2.2-0.1,3.2-0.4c1.8-0.5,0.8,0.3,1.4-1.3
		c0.8-2.2-1.6-7.2-2.3-9.2c-1,0.5-4.4,3.1-4.9,1.2c-0.3-1,3.4-2.4,4-2.8c-1.9-3.1-4.3-5.7-7.3-7.7c-0.7,1-2.1,4.3-3.3,3.6
		c-1.1-0.7,1.1-3.5,1.8-4.6c-3.2-1.8-6.6-2.8-10.2-3c-0.1,1,0.4,4.5-1,4.7c-1.5,0.2-0.9-4-0.9-4.9c-3.5,0.1-7.1,0.9-10.3,2.5
		c0.3,0.5,2.2,3.7,2.1,4.2c-0.6,2.6-2.8-2-2.8-2.1c-1.3-1.4-0.4-1.2-2.3-0.4c-1.1,0.5-2.2,1.7-3.1,2.6c-0.7,0.6-1.7,1.4-2.1,2.3
		c-1,2-1.1,0.5,0.4,2.4c0.4,0.6,4.5,2,1.9,2.9c-0.6,0.2-3.7-2.1-4.1-2.4c-1.2,2.4-4.4,8.9-2,10.2c0.8,0.4,3.5-0.4,3.8,0.7
		c0.4,1.8-3.8,1-4.9,1c0.1,3.6,0.9,7.2,2.5,10.4c0.6-0.3,3.9-2.6,4.5-1.8c1.1,1.4-2.7,2.7-3.7,3.3c1.9,3.1,4.3,5.7,7.2,7.8
		c0.4-0.7,2.1-4.3,3.3-3.6C18,83.3,15.4,86.3,15,87.1z"/>
	<path class="st0" d="M24.7,63.9c-0.3-1.9-3.3-13.9,0.9-12.3c1.5,0.5,1.2,4.5,1.4,5.8c0.4,2.6,1.3,5.4,1.6,7.9
		c0.2,1.8-0.6,4.2-3,2.8c-0.8-0.4-0.9-1.6-1.3-2.3c-0.9-1.1-1.9-2.2-2.9-3.3c-2.1-2.2-4.3-4.3-6.4-6.5c-1.7-1.7-4.2-3.3-4.5-5.7
		C13,51,15,54.1,16.8,56C19.3,58.6,22.1,61.3,24.7,63.9z"/>
</g>
<g>
	<path class="st1" d="M115.5,88.6c0,2.5,2.1,4.6,4.6,4.6c2.5,0,4.6-2.1,4.6-4.6V39.8h-9.2V88.6z"/>
	<path class="st0" d="M124.7,39.8v48.8c0,2.5-2.1,4.6-4.6,4.6c-2.5,0-4.6-2.1-4.6-4.6V39.8H114v48.8c0,3.4,2.8,6.2,6.2,6.2
		c3.4,0,6.2-2.8,6.2-6.2V39.8H124.7z"/>
	<path class="st2" d="M124.7,47.3c0,0-1.9-1.5-4.5-1.5c-3.2,0-4.7,1.5-4.7,1.5v41.4c0,2.5,2.1,4.6,4.6,4.6c2.5,0,4.6-2.1,4.6-4.6
		V47.3z"/>
	<rect x="114" y="55" class="st0" width="5.6" height="21.6"/>
	<g>
		<path class="st0" d="M120.2,38.9c2.7,0,4.4,0.7,4.9,1.1c-0.5,0.4-2.1,1.1-4.9,1.1s-4.4-0.7-4.9-1.1
			C115.8,39.6,117.4,38.9,120.2,38.9 M120.2,37.7c-3.4,0-6.2,1-6.2,2.3s2.8,2.3,6.2,2.3s6.2-1,6.2-2.3S123.6,37.7,120.2,37.7
			L120.2,37.7z"/>
	</g>
</g>
</svg>
